%TF.GenerationSoftware,KiCad,Pcbnew,7.0.10*%
%TF.CreationDate,2024-02-08T11:38:55+02:00*%
%TF.ProjectId,NCD57201DR2G_breakout,4e434435-3732-4303-9144-5232475f6272,0.1*%
%TF.SameCoordinates,Original*%
%TF.FileFunction,Legend,Bot*%
%TF.FilePolarity,Positive*%
%FSLAX46Y46*%
G04 Gerber Fmt 4.6, Leading zero omitted, Abs format (unit mm)*
G04 Created by KiCad (PCBNEW 7.0.10) date 2024-02-08 11:38:55*
%MOMM*%
%LPD*%
G01*
G04 APERTURE LIST*
%ADD10C,0.200000*%
%ADD11C,0.150000*%
%ADD12C,0.010000*%
%ADD13C,0.120000*%
G04 APERTURE END LIST*
D10*
X121695456Y-64662619D02*
X121695456Y-63662619D01*
X121695456Y-63662619D02*
X121124028Y-64662619D01*
X121124028Y-64662619D02*
X121124028Y-63662619D01*
X120076409Y-64567380D02*
X120124028Y-64615000D01*
X120124028Y-64615000D02*
X120266885Y-64662619D01*
X120266885Y-64662619D02*
X120362123Y-64662619D01*
X120362123Y-64662619D02*
X120504980Y-64615000D01*
X120504980Y-64615000D02*
X120600218Y-64519761D01*
X120600218Y-64519761D02*
X120647837Y-64424523D01*
X120647837Y-64424523D02*
X120695456Y-64234047D01*
X120695456Y-64234047D02*
X120695456Y-64091190D01*
X120695456Y-64091190D02*
X120647837Y-63900714D01*
X120647837Y-63900714D02*
X120600218Y-63805476D01*
X120600218Y-63805476D02*
X120504980Y-63710238D01*
X120504980Y-63710238D02*
X120362123Y-63662619D01*
X120362123Y-63662619D02*
X120266885Y-63662619D01*
X120266885Y-63662619D02*
X120124028Y-63710238D01*
X120124028Y-63710238D02*
X120076409Y-63757857D01*
X119647837Y-64662619D02*
X119647837Y-63662619D01*
X119647837Y-63662619D02*
X119409742Y-63662619D01*
X119409742Y-63662619D02*
X119266885Y-63710238D01*
X119266885Y-63710238D02*
X119171647Y-63805476D01*
X119171647Y-63805476D02*
X119124028Y-63900714D01*
X119124028Y-63900714D02*
X119076409Y-64091190D01*
X119076409Y-64091190D02*
X119076409Y-64234047D01*
X119076409Y-64234047D02*
X119124028Y-64424523D01*
X119124028Y-64424523D02*
X119171647Y-64519761D01*
X119171647Y-64519761D02*
X119266885Y-64615000D01*
X119266885Y-64615000D02*
X119409742Y-64662619D01*
X119409742Y-64662619D02*
X119647837Y-64662619D01*
X118171647Y-63662619D02*
X118647837Y-63662619D01*
X118647837Y-63662619D02*
X118695456Y-64138809D01*
X118695456Y-64138809D02*
X118647837Y-64091190D01*
X118647837Y-64091190D02*
X118552599Y-64043571D01*
X118552599Y-64043571D02*
X118314504Y-64043571D01*
X118314504Y-64043571D02*
X118219266Y-64091190D01*
X118219266Y-64091190D02*
X118171647Y-64138809D01*
X118171647Y-64138809D02*
X118124028Y-64234047D01*
X118124028Y-64234047D02*
X118124028Y-64472142D01*
X118124028Y-64472142D02*
X118171647Y-64567380D01*
X118171647Y-64567380D02*
X118219266Y-64615000D01*
X118219266Y-64615000D02*
X118314504Y-64662619D01*
X118314504Y-64662619D02*
X118552599Y-64662619D01*
X118552599Y-64662619D02*
X118647837Y-64615000D01*
X118647837Y-64615000D02*
X118695456Y-64567380D01*
X117790694Y-63662619D02*
X117124028Y-63662619D01*
X117124028Y-63662619D02*
X117552599Y-64662619D01*
X116790694Y-63757857D02*
X116743075Y-63710238D01*
X116743075Y-63710238D02*
X116647837Y-63662619D01*
X116647837Y-63662619D02*
X116409742Y-63662619D01*
X116409742Y-63662619D02*
X116314504Y-63710238D01*
X116314504Y-63710238D02*
X116266885Y-63757857D01*
X116266885Y-63757857D02*
X116219266Y-63853095D01*
X116219266Y-63853095D02*
X116219266Y-63948333D01*
X116219266Y-63948333D02*
X116266885Y-64091190D01*
X116266885Y-64091190D02*
X116838313Y-64662619D01*
X116838313Y-64662619D02*
X116219266Y-64662619D01*
X115600218Y-63662619D02*
X115504980Y-63662619D01*
X115504980Y-63662619D02*
X115409742Y-63710238D01*
X115409742Y-63710238D02*
X115362123Y-63757857D01*
X115362123Y-63757857D02*
X115314504Y-63853095D01*
X115314504Y-63853095D02*
X115266885Y-64043571D01*
X115266885Y-64043571D02*
X115266885Y-64281666D01*
X115266885Y-64281666D02*
X115314504Y-64472142D01*
X115314504Y-64472142D02*
X115362123Y-64567380D01*
X115362123Y-64567380D02*
X115409742Y-64615000D01*
X115409742Y-64615000D02*
X115504980Y-64662619D01*
X115504980Y-64662619D02*
X115600218Y-64662619D01*
X115600218Y-64662619D02*
X115695456Y-64615000D01*
X115695456Y-64615000D02*
X115743075Y-64567380D01*
X115743075Y-64567380D02*
X115790694Y-64472142D01*
X115790694Y-64472142D02*
X115838313Y-64281666D01*
X115838313Y-64281666D02*
X115838313Y-64043571D01*
X115838313Y-64043571D02*
X115790694Y-63853095D01*
X115790694Y-63853095D02*
X115743075Y-63757857D01*
X115743075Y-63757857D02*
X115695456Y-63710238D01*
X115695456Y-63710238D02*
X115600218Y-63662619D01*
X114314504Y-64662619D02*
X114885932Y-64662619D01*
X114600218Y-64662619D02*
X114600218Y-63662619D01*
X114600218Y-63662619D02*
X114695456Y-63805476D01*
X114695456Y-63805476D02*
X114790694Y-63900714D01*
X114790694Y-63900714D02*
X114885932Y-63948333D01*
X113885932Y-64662619D02*
X113885932Y-63662619D01*
X113885932Y-63662619D02*
X113647837Y-63662619D01*
X113647837Y-63662619D02*
X113504980Y-63710238D01*
X113504980Y-63710238D02*
X113409742Y-63805476D01*
X113409742Y-63805476D02*
X113362123Y-63900714D01*
X113362123Y-63900714D02*
X113314504Y-64091190D01*
X113314504Y-64091190D02*
X113314504Y-64234047D01*
X113314504Y-64234047D02*
X113362123Y-64424523D01*
X113362123Y-64424523D02*
X113409742Y-64519761D01*
X113409742Y-64519761D02*
X113504980Y-64615000D01*
X113504980Y-64615000D02*
X113647837Y-64662619D01*
X113647837Y-64662619D02*
X113885932Y-64662619D01*
X112314504Y-64662619D02*
X112647837Y-64186428D01*
X112885932Y-64662619D02*
X112885932Y-63662619D01*
X112885932Y-63662619D02*
X112504980Y-63662619D01*
X112504980Y-63662619D02*
X112409742Y-63710238D01*
X112409742Y-63710238D02*
X112362123Y-63757857D01*
X112362123Y-63757857D02*
X112314504Y-63853095D01*
X112314504Y-63853095D02*
X112314504Y-63995952D01*
X112314504Y-63995952D02*
X112362123Y-64091190D01*
X112362123Y-64091190D02*
X112409742Y-64138809D01*
X112409742Y-64138809D02*
X112504980Y-64186428D01*
X112504980Y-64186428D02*
X112885932Y-64186428D01*
X111933551Y-63757857D02*
X111885932Y-63710238D01*
X111885932Y-63710238D02*
X111790694Y-63662619D01*
X111790694Y-63662619D02*
X111552599Y-63662619D01*
X111552599Y-63662619D02*
X111457361Y-63710238D01*
X111457361Y-63710238D02*
X111409742Y-63757857D01*
X111409742Y-63757857D02*
X111362123Y-63853095D01*
X111362123Y-63853095D02*
X111362123Y-63948333D01*
X111362123Y-63948333D02*
X111409742Y-64091190D01*
X111409742Y-64091190D02*
X111981170Y-64662619D01*
X111981170Y-64662619D02*
X111362123Y-64662619D01*
X110409742Y-63710238D02*
X110504980Y-63662619D01*
X110504980Y-63662619D02*
X110647837Y-63662619D01*
X110647837Y-63662619D02*
X110790694Y-63710238D01*
X110790694Y-63710238D02*
X110885932Y-63805476D01*
X110885932Y-63805476D02*
X110933551Y-63900714D01*
X110933551Y-63900714D02*
X110981170Y-64091190D01*
X110981170Y-64091190D02*
X110981170Y-64234047D01*
X110981170Y-64234047D02*
X110933551Y-64424523D01*
X110933551Y-64424523D02*
X110885932Y-64519761D01*
X110885932Y-64519761D02*
X110790694Y-64615000D01*
X110790694Y-64615000D02*
X110647837Y-64662619D01*
X110647837Y-64662619D02*
X110552599Y-64662619D01*
X110552599Y-64662619D02*
X110409742Y-64615000D01*
X110409742Y-64615000D02*
X110362123Y-64567380D01*
X110362123Y-64567380D02*
X110362123Y-64234047D01*
X110362123Y-64234047D02*
X110552599Y-64234047D01*
D11*
X124005933Y-63987619D02*
X124005933Y-64701904D01*
X124005933Y-64701904D02*
X124053552Y-64844761D01*
X124053552Y-64844761D02*
X124148790Y-64940000D01*
X124148790Y-64940000D02*
X124291647Y-64987619D01*
X124291647Y-64987619D02*
X124386885Y-64987619D01*
X123577361Y-64082857D02*
X123529742Y-64035238D01*
X123529742Y-64035238D02*
X123434504Y-63987619D01*
X123434504Y-63987619D02*
X123196409Y-63987619D01*
X123196409Y-63987619D02*
X123101171Y-64035238D01*
X123101171Y-64035238D02*
X123053552Y-64082857D01*
X123053552Y-64082857D02*
X123005933Y-64178095D01*
X123005933Y-64178095D02*
X123005933Y-64273333D01*
X123005933Y-64273333D02*
X123053552Y-64416190D01*
X123053552Y-64416190D02*
X123624980Y-64987619D01*
X123624980Y-64987619D02*
X123005933Y-64987619D01*
X108765933Y-63987619D02*
X108765933Y-64701904D01*
X108765933Y-64701904D02*
X108813552Y-64844761D01*
X108813552Y-64844761D02*
X108908790Y-64940000D01*
X108908790Y-64940000D02*
X109051647Y-64987619D01*
X109051647Y-64987619D02*
X109146885Y-64987619D01*
X107765933Y-64987619D02*
X108337361Y-64987619D01*
X108051647Y-64987619D02*
X108051647Y-63987619D01*
X108051647Y-63987619D02*
X108146885Y-64130476D01*
X108146885Y-64130476D02*
X108242123Y-64225714D01*
X108242123Y-64225714D02*
X108337361Y-64273333D01*
%TO.C,REF\u002A\u002A*%
D12*
X114733941Y-76939282D02*
X114765774Y-76951758D01*
X114802743Y-76968602D01*
X114802743Y-77455196D01*
X114756812Y-77501127D01*
X114746320Y-77511427D01*
X114717255Y-77534320D01*
X114687943Y-77541735D01*
X114644326Y-77538321D01*
X114626568Y-77536114D01*
X114580767Y-77531445D01*
X114548743Y-77529585D01*
X114539244Y-77529869D01*
X114500274Y-77532948D01*
X114453160Y-77538321D01*
X114438085Y-77540168D01*
X114400110Y-77540893D01*
X114372325Y-77529429D01*
X114340674Y-77501127D01*
X114294743Y-77455196D01*
X114294743Y-77195055D01*
X114295101Y-77118180D01*
X114296216Y-77044886D01*
X114297952Y-76986850D01*
X114300167Y-76948663D01*
X114302721Y-76934914D01*
X114303256Y-76934951D01*
X114321808Y-76941793D01*
X114353153Y-76956868D01*
X114395608Y-76978822D01*
X114399604Y-77207240D01*
X114403600Y-77435657D01*
X114490686Y-77435657D01*
X114494657Y-77185286D01*
X114495916Y-77117227D01*
X114497718Y-77044482D01*
X114499671Y-76986730D01*
X114501612Y-76948648D01*
X114503377Y-76934914D01*
X114503885Y-76934962D01*
X114521482Y-76940015D01*
X114553834Y-76950849D01*
X114599543Y-76966783D01*
X114599765Y-77186706D01*
X114599988Y-77224909D01*
X114601531Y-77299146D01*
X114604292Y-77361145D01*
X114607977Y-77405308D01*
X114612292Y-77426041D01*
X114627732Y-77437131D01*
X114659241Y-77440556D01*
X114693886Y-77435657D01*
X114697857Y-77185286D01*
X114699278Y-77121663D01*
X114702225Y-77046356D01*
X114706079Y-76987286D01*
X114710542Y-76948718D01*
X114715317Y-76934914D01*
X114733941Y-76939282D01*
G36*
X114733941Y-76939282D02*
G01*
X114765774Y-76951758D01*
X114802743Y-76968602D01*
X114802743Y-77455196D01*
X114756812Y-77501127D01*
X114746320Y-77511427D01*
X114717255Y-77534320D01*
X114687943Y-77541735D01*
X114644326Y-77538321D01*
X114626568Y-77536114D01*
X114580767Y-77531445D01*
X114548743Y-77529585D01*
X114539244Y-77529869D01*
X114500274Y-77532948D01*
X114453160Y-77538321D01*
X114438085Y-77540168D01*
X114400110Y-77540893D01*
X114372325Y-77529429D01*
X114340674Y-77501127D01*
X114294743Y-77455196D01*
X114294743Y-77195055D01*
X114295101Y-77118180D01*
X114296216Y-77044886D01*
X114297952Y-76986850D01*
X114300167Y-76948663D01*
X114302721Y-76934914D01*
X114303256Y-76934951D01*
X114321808Y-76941793D01*
X114353153Y-76956868D01*
X114395608Y-76978822D01*
X114399604Y-77207240D01*
X114403600Y-77435657D01*
X114490686Y-77435657D01*
X114494657Y-77185286D01*
X114495916Y-77117227D01*
X114497718Y-77044482D01*
X114499671Y-76986730D01*
X114501612Y-76948648D01*
X114503377Y-76934914D01*
X114503885Y-76934962D01*
X114521482Y-76940015D01*
X114553834Y-76950849D01*
X114599543Y-76966783D01*
X114599765Y-77186706D01*
X114599988Y-77224909D01*
X114601531Y-77299146D01*
X114604292Y-77361145D01*
X114607977Y-77405308D01*
X114612292Y-77426041D01*
X114627732Y-77437131D01*
X114659241Y-77440556D01*
X114693886Y-77435657D01*
X114697857Y-77185286D01*
X114699278Y-77121663D01*
X114702225Y-77046356D01*
X114706079Y-76987286D01*
X114710542Y-76948718D01*
X114715317Y-76934914D01*
X114733941Y-76939282D01*
G37*
X119345714Y-77225200D02*
X119345701Y-77240935D01*
X119344914Y-77311119D01*
X119342210Y-77360022D01*
X119336606Y-77394178D01*
X119327119Y-77420124D01*
X119312768Y-77444397D01*
X119309237Y-77449433D01*
X119271878Y-77489143D01*
X119229311Y-77519092D01*
X119207452Y-77528810D01*
X119128908Y-77545020D01*
X119051231Y-77534535D01*
X118979645Y-77498707D01*
X118919374Y-77438887D01*
X118914286Y-77430873D01*
X118897730Y-77384342D01*
X118886573Y-77319552D01*
X118881160Y-77244727D01*
X118881768Y-77175513D01*
X119028248Y-77175513D01*
X119029402Y-77271399D01*
X119029866Y-77277569D01*
X119036629Y-77330478D01*
X119048671Y-77364029D01*
X119069005Y-77387016D01*
X119103097Y-77408548D01*
X119136814Y-77409680D01*
X119171543Y-77384857D01*
X119177584Y-77378325D01*
X119189417Y-77358779D01*
X119196404Y-77330386D01*
X119199727Y-77286430D01*
X119200571Y-77220192D01*
X119199125Y-77158150D01*
X119191907Y-77099042D01*
X119177006Y-77061686D01*
X119152636Y-77042152D01*
X119117008Y-77036514D01*
X119103440Y-77037635D01*
X119065430Y-77058194D01*
X119040312Y-77104299D01*
X119028248Y-77175513D01*
X118881768Y-77175513D01*
X118881833Y-77168096D01*
X118888937Y-77097882D01*
X118902815Y-77042312D01*
X118920649Y-77005301D01*
X118970855Y-76947733D01*
X119038885Y-76911962D01*
X119122158Y-76899665D01*
X119144398Y-76900331D01*
X119209891Y-76913947D01*
X119263687Y-76948249D01*
X119313057Y-77007338D01*
X119315995Y-77011722D01*
X119329287Y-77035299D01*
X119337932Y-77061949D01*
X119342904Y-77098159D01*
X119345174Y-77150413D01*
X119345678Y-77220192D01*
X119345714Y-77225200D01*
G36*
X119345714Y-77225200D02*
G01*
X119345701Y-77240935D01*
X119344914Y-77311119D01*
X119342210Y-77360022D01*
X119336606Y-77394178D01*
X119327119Y-77420124D01*
X119312768Y-77444397D01*
X119309237Y-77449433D01*
X119271878Y-77489143D01*
X119229311Y-77519092D01*
X119207452Y-77528810D01*
X119128908Y-77545020D01*
X119051231Y-77534535D01*
X118979645Y-77498707D01*
X118919374Y-77438887D01*
X118914286Y-77430873D01*
X118897730Y-77384342D01*
X118886573Y-77319552D01*
X118881160Y-77244727D01*
X118881768Y-77175513D01*
X119028248Y-77175513D01*
X119029402Y-77271399D01*
X119029866Y-77277569D01*
X119036629Y-77330478D01*
X119048671Y-77364029D01*
X119069005Y-77387016D01*
X119103097Y-77408548D01*
X119136814Y-77409680D01*
X119171543Y-77384857D01*
X119177584Y-77378325D01*
X119189417Y-77358779D01*
X119196404Y-77330386D01*
X119199727Y-77286430D01*
X119200571Y-77220192D01*
X119199125Y-77158150D01*
X119191907Y-77099042D01*
X119177006Y-77061686D01*
X119152636Y-77042152D01*
X119117008Y-77036514D01*
X119103440Y-77037635D01*
X119065430Y-77058194D01*
X119040312Y-77104299D01*
X119028248Y-77175513D01*
X118881768Y-77175513D01*
X118881833Y-77168096D01*
X118888937Y-77097882D01*
X118902815Y-77042312D01*
X118920649Y-77005301D01*
X118970855Y-76947733D01*
X119038885Y-76911962D01*
X119122158Y-76899665D01*
X119144398Y-76900331D01*
X119209891Y-76913947D01*
X119263687Y-76948249D01*
X119313057Y-77007338D01*
X119315995Y-77011722D01*
X119329287Y-77035299D01*
X119337932Y-77061949D01*
X119342904Y-77098159D01*
X119345174Y-77150413D01*
X119345678Y-77220192D01*
X119345714Y-77225200D01*
G37*
X113220590Y-77242622D02*
X113220307Y-77281305D01*
X113216762Y-77357521D01*
X113207483Y-77413294D01*
X113190375Y-77454613D01*
X113163344Y-77487467D01*
X113124292Y-77517846D01*
X113099445Y-77531660D01*
X113059615Y-77540965D01*
X113003665Y-77540230D01*
X112972385Y-77537283D01*
X112934653Y-77528283D01*
X112904494Y-77508720D01*
X112869408Y-77472267D01*
X112864720Y-77466943D01*
X112833177Y-77425969D01*
X112818128Y-77390283D01*
X112814286Y-77347966D01*
X112814286Y-77285779D01*
X112857742Y-77302182D01*
X112889424Y-77321356D01*
X112916962Y-77366347D01*
X112922711Y-77380752D01*
X112954855Y-77421546D01*
X112998611Y-77442081D01*
X113046254Y-77440235D01*
X113090057Y-77413886D01*
X113105111Y-77397455D01*
X113118763Y-77372667D01*
X113114493Y-77350144D01*
X113089916Y-77326964D01*
X113042651Y-77300202D01*
X112970314Y-77266934D01*
X112821543Y-77201816D01*
X112817595Y-77137308D01*
X112819079Y-77096220D01*
X112916010Y-77096220D01*
X112923368Y-77121657D01*
X112956848Y-77148814D01*
X113017614Y-77179714D01*
X113027669Y-77184190D01*
X113075751Y-77205017D01*
X113111726Y-77219665D01*
X113128444Y-77225200D01*
X113130977Y-77221126D01*
X113131993Y-77196247D01*
X113128369Y-77156257D01*
X113119242Y-77117152D01*
X113090773Y-77067884D01*
X113049678Y-77040122D01*
X113000590Y-77036364D01*
X112948144Y-77059109D01*
X112933609Y-77070481D01*
X112916010Y-77096220D01*
X112819079Y-77096220D01*
X112819338Y-77089064D01*
X112841281Y-77028096D01*
X112868979Y-76994497D01*
X112926405Y-76956966D01*
X112994527Y-76938006D01*
X113064947Y-76939507D01*
X113129267Y-76963355D01*
X113143426Y-76972513D01*
X113175904Y-77000849D01*
X113198116Y-77036695D01*
X113211804Y-77085384D01*
X113218715Y-77152249D01*
X113219628Y-77196247D01*
X113220590Y-77242622D01*
G36*
X113220590Y-77242622D02*
G01*
X113220307Y-77281305D01*
X113216762Y-77357521D01*
X113207483Y-77413294D01*
X113190375Y-77454613D01*
X113163344Y-77487467D01*
X113124292Y-77517846D01*
X113099445Y-77531660D01*
X113059615Y-77540965D01*
X113003665Y-77540230D01*
X112972385Y-77537283D01*
X112934653Y-77528283D01*
X112904494Y-77508720D01*
X112869408Y-77472267D01*
X112864720Y-77466943D01*
X112833177Y-77425969D01*
X112818128Y-77390283D01*
X112814286Y-77347966D01*
X112814286Y-77285779D01*
X112857742Y-77302182D01*
X112889424Y-77321356D01*
X112916962Y-77366347D01*
X112922711Y-77380752D01*
X112954855Y-77421546D01*
X112998611Y-77442081D01*
X113046254Y-77440235D01*
X113090057Y-77413886D01*
X113105111Y-77397455D01*
X113118763Y-77372667D01*
X113114493Y-77350144D01*
X113089916Y-77326964D01*
X113042651Y-77300202D01*
X112970314Y-77266934D01*
X112821543Y-77201816D01*
X112817595Y-77137308D01*
X112819079Y-77096220D01*
X112916010Y-77096220D01*
X112923368Y-77121657D01*
X112956848Y-77148814D01*
X113017614Y-77179714D01*
X113027669Y-77184190D01*
X113075751Y-77205017D01*
X113111726Y-77219665D01*
X113128444Y-77225200D01*
X113130977Y-77221126D01*
X113131993Y-77196247D01*
X113128369Y-77156257D01*
X113119242Y-77117152D01*
X113090773Y-77067884D01*
X113049678Y-77040122D01*
X113000590Y-77036364D01*
X112948144Y-77059109D01*
X112933609Y-77070481D01*
X112916010Y-77096220D01*
X112819079Y-77096220D01*
X112819338Y-77089064D01*
X112841281Y-77028096D01*
X112868979Y-76994497D01*
X112926405Y-76956966D01*
X112994527Y-76938006D01*
X113064947Y-76939507D01*
X113129267Y-76963355D01*
X113143426Y-76972513D01*
X113175904Y-77000849D01*
X113198116Y-77036695D01*
X113211804Y-77085384D01*
X113218715Y-77152249D01*
X113219628Y-77196247D01*
X113220590Y-77242622D01*
G37*
X117511020Y-76907822D02*
X117578810Y-76939680D01*
X117634366Y-76994770D01*
X117645881Y-77012016D01*
X117655432Y-77031562D01*
X117662206Y-77056198D01*
X117666819Y-77090711D01*
X117669888Y-77139889D01*
X117672029Y-77208519D01*
X117673859Y-77301389D01*
X117678404Y-77559007D01*
X117640225Y-77544491D01*
X117605268Y-77531156D01*
X117579097Y-77518323D01*
X117562013Y-77501780D01*
X117552086Y-77476465D01*
X117547386Y-77437316D01*
X117545982Y-77379268D01*
X117545943Y-77297261D01*
X117545744Y-77231895D01*
X117544559Y-77169173D01*
X117541729Y-77126334D01*
X117536609Y-77098220D01*
X117528553Y-77079675D01*
X117516914Y-77065543D01*
X117488303Y-77045600D01*
X117440239Y-77038083D01*
X117392688Y-77057079D01*
X117389550Y-77059511D01*
X117379769Y-77070748D01*
X117372553Y-77088770D01*
X117367299Y-77118026D01*
X117363402Y-77162962D01*
X117360256Y-77228028D01*
X117357257Y-77317670D01*
X117350000Y-77557697D01*
X117288314Y-77530044D01*
X117226629Y-77502391D01*
X117226629Y-77283246D01*
X117226884Y-77223711D01*
X117229086Y-77140892D01*
X117234661Y-77079227D01*
X117244941Y-77033748D01*
X117261258Y-76999484D01*
X117284943Y-76971466D01*
X117317328Y-76944723D01*
X117363907Y-76917780D01*
X117437287Y-76900191D01*
X117511020Y-76907822D01*
G36*
X117511020Y-76907822D02*
G01*
X117578810Y-76939680D01*
X117634366Y-76994770D01*
X117645881Y-77012016D01*
X117655432Y-77031562D01*
X117662206Y-77056198D01*
X117666819Y-77090711D01*
X117669888Y-77139889D01*
X117672029Y-77208519D01*
X117673859Y-77301389D01*
X117678404Y-77559007D01*
X117640225Y-77544491D01*
X117605268Y-77531156D01*
X117579097Y-77518323D01*
X117562013Y-77501780D01*
X117552086Y-77476465D01*
X117547386Y-77437316D01*
X117545982Y-77379268D01*
X117545943Y-77297261D01*
X117545744Y-77231895D01*
X117544559Y-77169173D01*
X117541729Y-77126334D01*
X117536609Y-77098220D01*
X117528553Y-77079675D01*
X117516914Y-77065543D01*
X117488303Y-77045600D01*
X117440239Y-77038083D01*
X117392688Y-77057079D01*
X117389550Y-77059511D01*
X117379769Y-77070748D01*
X117372553Y-77088770D01*
X117367299Y-77118026D01*
X117363402Y-77162962D01*
X117360256Y-77228028D01*
X117357257Y-77317670D01*
X117350000Y-77557697D01*
X117288314Y-77530044D01*
X117226629Y-77502391D01*
X117226629Y-77283246D01*
X117226884Y-77223711D01*
X117229086Y-77140892D01*
X117234661Y-77079227D01*
X117244941Y-77033748D01*
X117261258Y-76999484D01*
X117284943Y-76971466D01*
X117317328Y-76944723D01*
X117363907Y-76917780D01*
X117437287Y-76900191D01*
X117511020Y-76907822D01*
G37*
X113562829Y-76941097D02*
X113622753Y-76963355D01*
X113647673Y-76980080D01*
X113672910Y-77004043D01*
X113690912Y-77034526D01*
X113702858Y-77076023D01*
X113709930Y-77133032D01*
X113713308Y-77210047D01*
X113714171Y-77311565D01*
X113714002Y-77364027D01*
X113713153Y-77435715D01*
X113711711Y-77492925D01*
X113709814Y-77530809D01*
X113707597Y-77544514D01*
X113693172Y-77539981D01*
X113664054Y-77527670D01*
X113663181Y-77527272D01*
X113648060Y-77519356D01*
X113637891Y-77508495D01*
X113631691Y-77489471D01*
X113628478Y-77457069D01*
X113627270Y-77406071D01*
X113627086Y-77331261D01*
X113626714Y-77283804D01*
X113622750Y-77194615D01*
X113613673Y-77129287D01*
X113598524Y-77084393D01*
X113576345Y-77056507D01*
X113546175Y-77042203D01*
X113541990Y-77041206D01*
X113485480Y-77040427D01*
X113441410Y-77065744D01*
X113410972Y-77116502D01*
X113405544Y-77131175D01*
X113393171Y-77163649D01*
X113386905Y-77178572D01*
X113374036Y-77176516D01*
X113345933Y-77165357D01*
X113319721Y-77146927D01*
X113307771Y-77112098D01*
X113311336Y-77087151D01*
X113333235Y-77036547D01*
X113368644Y-76989128D01*
X113410052Y-76956334D01*
X113427400Y-76948752D01*
X113493089Y-76936076D01*
X113562829Y-76941097D01*
G36*
X113562829Y-76941097D02*
G01*
X113622753Y-76963355D01*
X113647673Y-76980080D01*
X113672910Y-77004043D01*
X113690912Y-77034526D01*
X113702858Y-77076023D01*
X113709930Y-77133032D01*
X113713308Y-77210047D01*
X113714171Y-77311565D01*
X113714002Y-77364027D01*
X113713153Y-77435715D01*
X113711711Y-77492925D01*
X113709814Y-77530809D01*
X113707597Y-77544514D01*
X113693172Y-77539981D01*
X113664054Y-77527670D01*
X113663181Y-77527272D01*
X113648060Y-77519356D01*
X113637891Y-77508495D01*
X113631691Y-77489471D01*
X113628478Y-77457069D01*
X113627270Y-77406071D01*
X113627086Y-77331261D01*
X113626714Y-77283804D01*
X113622750Y-77194615D01*
X113613673Y-77129287D01*
X113598524Y-77084393D01*
X113576345Y-77056507D01*
X113546175Y-77042203D01*
X113541990Y-77041206D01*
X113485480Y-77040427D01*
X113441410Y-77065744D01*
X113410972Y-77116502D01*
X113405544Y-77131175D01*
X113393171Y-77163649D01*
X113386905Y-77178572D01*
X113374036Y-77176516D01*
X113345933Y-77165357D01*
X113319721Y-77146927D01*
X113307771Y-77112098D01*
X113311336Y-77087151D01*
X113333235Y-77036547D01*
X113368644Y-76989128D01*
X113410052Y-76956334D01*
X113427400Y-76948752D01*
X113493089Y-76936076D01*
X113562829Y-76941097D01*
G37*
X115310698Y-77239714D02*
X115309537Y-77296313D01*
X115301345Y-77373462D01*
X115283519Y-77431276D01*
X115253975Y-77475422D01*
X115210625Y-77511568D01*
X115169332Y-77532463D01*
X115099987Y-77544090D01*
X115030736Y-77531377D01*
X114968145Y-77495945D01*
X114918779Y-77439418D01*
X114912818Y-77428995D01*
X114904945Y-77410733D01*
X114899106Y-77387429D01*
X114894999Y-77355085D01*
X114892325Y-77309704D01*
X114890781Y-77247287D01*
X114890734Y-77241748D01*
X114991429Y-77241748D01*
X114991772Y-77294577D01*
X114993942Y-77342362D01*
X114999307Y-77373209D01*
X115009217Y-77393935D01*
X115025021Y-77411356D01*
X115028724Y-77414705D01*
X115076299Y-77439419D01*
X115126635Y-77436890D01*
X115173517Y-77407288D01*
X115187477Y-77391953D01*
X115199160Y-77371622D01*
X115205686Y-77343514D01*
X115208524Y-77300550D01*
X115209143Y-77235647D01*
X115208837Y-77186122D01*
X115206722Y-77137782D01*
X115201390Y-77106587D01*
X115191460Y-77085647D01*
X115175550Y-77068073D01*
X115166204Y-77060159D01*
X115117776Y-77038843D01*
X115067040Y-77042198D01*
X115022987Y-77070107D01*
X115013504Y-77081173D01*
X115001939Y-77102009D01*
X114995252Y-77131106D01*
X114992173Y-77175381D01*
X114991429Y-77241748D01*
X114890734Y-77241748D01*
X114890067Y-77163837D01*
X114889883Y-77055358D01*
X114889829Y-76718601D01*
X114937000Y-76738362D01*
X114949472Y-76743770D01*
X114969324Y-76755985D01*
X114980687Y-76774482D01*
X114986933Y-76806829D01*
X114991429Y-76860593D01*
X114995535Y-76908866D01*
X115000963Y-76940557D01*
X115008739Y-76952383D01*
X115020457Y-76949212D01*
X115050318Y-76938067D01*
X115103684Y-76935304D01*
X115161093Y-76945625D01*
X115210625Y-76967861D01*
X115237876Y-76988443D01*
X115272865Y-77028600D01*
X115295274Y-77080086D01*
X115307190Y-77148568D01*
X115310542Y-77235647D01*
X115310698Y-77239714D01*
G36*
X115310698Y-77239714D02*
G01*
X115309537Y-77296313D01*
X115301345Y-77373462D01*
X115283519Y-77431276D01*
X115253975Y-77475422D01*
X115210625Y-77511568D01*
X115169332Y-77532463D01*
X115099987Y-77544090D01*
X115030736Y-77531377D01*
X114968145Y-77495945D01*
X114918779Y-77439418D01*
X114912818Y-77428995D01*
X114904945Y-77410733D01*
X114899106Y-77387429D01*
X114894999Y-77355085D01*
X114892325Y-77309704D01*
X114890781Y-77247287D01*
X114890734Y-77241748D01*
X114991429Y-77241748D01*
X114991772Y-77294577D01*
X114993942Y-77342362D01*
X114999307Y-77373209D01*
X115009217Y-77393935D01*
X115025021Y-77411356D01*
X115028724Y-77414705D01*
X115076299Y-77439419D01*
X115126635Y-77436890D01*
X115173517Y-77407288D01*
X115187477Y-77391953D01*
X115199160Y-77371622D01*
X115205686Y-77343514D01*
X115208524Y-77300550D01*
X115209143Y-77235647D01*
X115208837Y-77186122D01*
X115206722Y-77137782D01*
X115201390Y-77106587D01*
X115191460Y-77085647D01*
X115175550Y-77068073D01*
X115166204Y-77060159D01*
X115117776Y-77038843D01*
X115067040Y-77042198D01*
X115022987Y-77070107D01*
X115013504Y-77081173D01*
X115001939Y-77102009D01*
X114995252Y-77131106D01*
X114992173Y-77175381D01*
X114991429Y-77241748D01*
X114890734Y-77241748D01*
X114890067Y-77163837D01*
X114889883Y-77055358D01*
X114889829Y-76718601D01*
X114937000Y-76738362D01*
X114949472Y-76743770D01*
X114969324Y-76755985D01*
X114980687Y-76774482D01*
X114986933Y-76806829D01*
X114991429Y-76860593D01*
X114995535Y-76908866D01*
X115000963Y-76940557D01*
X115008739Y-76952383D01*
X115020457Y-76949212D01*
X115050318Y-76938067D01*
X115103684Y-76935304D01*
X115161093Y-76945625D01*
X115210625Y-76967861D01*
X115237876Y-76988443D01*
X115272865Y-77028600D01*
X115295274Y-77080086D01*
X115307190Y-77148568D01*
X115310542Y-77235647D01*
X115310698Y-77239714D01*
G37*
X116758543Y-76739444D02*
X116805714Y-76759342D01*
X116805714Y-77156509D01*
X116805519Y-77259498D01*
X116804998Y-77352141D01*
X116804199Y-77430700D01*
X116803172Y-77491439D01*
X116801963Y-77530623D01*
X116800623Y-77544514D01*
X116800099Y-77544468D01*
X116782287Y-77539420D01*
X116749823Y-77528580D01*
X116704114Y-77512646D01*
X116704114Y-77308173D01*
X116703824Y-77227832D01*
X116702474Y-77169562D01*
X116699369Y-77129909D01*
X116693812Y-77103618D01*
X116685107Y-77085436D01*
X116672556Y-77070107D01*
X116663999Y-77061955D01*
X116617728Y-77039375D01*
X116566728Y-77041375D01*
X116519993Y-77068073D01*
X116513189Y-77074698D01*
X116502293Y-77088456D01*
X116494836Y-77106642D01*
X116490169Y-77134177D01*
X116487642Y-77175981D01*
X116486602Y-77236973D01*
X116486400Y-77322073D01*
X116486303Y-77365234D01*
X116485674Y-77436224D01*
X116484556Y-77493076D01*
X116483063Y-77530828D01*
X116481309Y-77544514D01*
X116480785Y-77544468D01*
X116462973Y-77539420D01*
X116430509Y-77528580D01*
X116384800Y-77512646D01*
X116384823Y-77307237D01*
X116384857Y-77288951D01*
X116386778Y-77193626D01*
X116392678Y-77121543D01*
X116404001Y-77067813D01*
X116422187Y-77027549D01*
X116448679Y-76995861D01*
X116484918Y-76967861D01*
X116520263Y-76950333D01*
X116576773Y-76936785D01*
X116632356Y-76936015D01*
X116675086Y-76949195D01*
X116678298Y-76951015D01*
X116688205Y-76950820D01*
X116694975Y-76935572D01*
X116699861Y-76900613D01*
X116704114Y-76841289D01*
X116711371Y-76719547D01*
X116758543Y-76739444D01*
G36*
X116758543Y-76739444D02*
G01*
X116805714Y-76759342D01*
X116805714Y-77156509D01*
X116805519Y-77259498D01*
X116804998Y-77352141D01*
X116804199Y-77430700D01*
X116803172Y-77491439D01*
X116801963Y-77530623D01*
X116800623Y-77544514D01*
X116800099Y-77544468D01*
X116782287Y-77539420D01*
X116749823Y-77528580D01*
X116704114Y-77512646D01*
X116704114Y-77308173D01*
X116703824Y-77227832D01*
X116702474Y-77169562D01*
X116699369Y-77129909D01*
X116693812Y-77103618D01*
X116685107Y-77085436D01*
X116672556Y-77070107D01*
X116663999Y-77061955D01*
X116617728Y-77039375D01*
X116566728Y-77041375D01*
X116519993Y-77068073D01*
X116513189Y-77074698D01*
X116502293Y-77088456D01*
X116494836Y-77106642D01*
X116490169Y-77134177D01*
X116487642Y-77175981D01*
X116486602Y-77236973D01*
X116486400Y-77322073D01*
X116486303Y-77365234D01*
X116485674Y-77436224D01*
X116484556Y-77493076D01*
X116483063Y-77530828D01*
X116481309Y-77544514D01*
X116480785Y-77544468D01*
X116462973Y-77539420D01*
X116430509Y-77528580D01*
X116384800Y-77512646D01*
X116384823Y-77307237D01*
X116384857Y-77288951D01*
X116386778Y-77193626D01*
X116392678Y-77121543D01*
X116404001Y-77067813D01*
X116422187Y-77027549D01*
X116448679Y-76995861D01*
X116484918Y-76967861D01*
X116520263Y-76950333D01*
X116576773Y-76936785D01*
X116632356Y-76936015D01*
X116675086Y-76949195D01*
X116678298Y-76951015D01*
X116688205Y-76950820D01*
X116694975Y-76935572D01*
X116699861Y-76900613D01*
X116704114Y-76841289D01*
X116711371Y-76719547D01*
X116758543Y-76739444D01*
G37*
X116169483Y-76950569D02*
X116219376Y-76979661D01*
X116241325Y-77002327D01*
X116283504Y-77070082D01*
X116297714Y-77143950D01*
X116297714Y-77194770D01*
X116250999Y-77175128D01*
X116218692Y-77155308D01*
X116193231Y-77114160D01*
X116190616Y-77105675D01*
X116162478Y-77062451D01*
X116120067Y-77039103D01*
X116071370Y-77038100D01*
X116024373Y-77061914D01*
X116017357Y-77068056D01*
X115993893Y-77094745D01*
X115990019Y-77118014D01*
X116007768Y-77140862D01*
X116049179Y-77166287D01*
X116116286Y-77197288D01*
X116120824Y-77199252D01*
X116195322Y-77233990D01*
X116246203Y-77264763D01*
X116277525Y-77295488D01*
X116293343Y-77330082D01*
X116297714Y-77372462D01*
X116291986Y-77419446D01*
X116263062Y-77479585D01*
X116212178Y-77522788D01*
X116175374Y-77535759D01*
X116123434Y-77542856D01*
X116072999Y-77541340D01*
X116036983Y-77530632D01*
X116033158Y-77527966D01*
X116022998Y-77509337D01*
X116030048Y-77476505D01*
X116042297Y-77450735D01*
X116061939Y-77440006D01*
X116099191Y-77440539D01*
X116150908Y-77437462D01*
X116184701Y-77416212D01*
X116196114Y-77376877D01*
X116196104Y-77375747D01*
X116189187Y-77352913D01*
X116165659Y-77331963D01*
X116119914Y-77307815D01*
X116057704Y-77278741D01*
X116016499Y-77262925D01*
X115992712Y-77263944D01*
X115981597Y-77284837D01*
X115978408Y-77328641D01*
X115978400Y-77398393D01*
X115978044Y-77441452D01*
X115976413Y-77494626D01*
X115973761Y-77531022D01*
X115970422Y-77544514D01*
X115969530Y-77544423D01*
X115950237Y-77537110D01*
X115918284Y-77521678D01*
X115874124Y-77498842D01*
X115879371Y-77293078D01*
X115879736Y-77279432D01*
X115883904Y-77183651D01*
X115891268Y-77111462D01*
X115903330Y-77058058D01*
X115921593Y-77018633D01*
X115947560Y-76988380D01*
X115982733Y-76962493D01*
X115983384Y-76962087D01*
X116040256Y-76940968D01*
X116106033Y-76937400D01*
X116169483Y-76950569D01*
G36*
X116169483Y-76950569D02*
G01*
X116219376Y-76979661D01*
X116241325Y-77002327D01*
X116283504Y-77070082D01*
X116297714Y-77143950D01*
X116297714Y-77194770D01*
X116250999Y-77175128D01*
X116218692Y-77155308D01*
X116193231Y-77114160D01*
X116190616Y-77105675D01*
X116162478Y-77062451D01*
X116120067Y-77039103D01*
X116071370Y-77038100D01*
X116024373Y-77061914D01*
X116017357Y-77068056D01*
X115993893Y-77094745D01*
X115990019Y-77118014D01*
X116007768Y-77140862D01*
X116049179Y-77166287D01*
X116116286Y-77197288D01*
X116120824Y-77199252D01*
X116195322Y-77233990D01*
X116246203Y-77264763D01*
X116277525Y-77295488D01*
X116293343Y-77330082D01*
X116297714Y-77372462D01*
X116291986Y-77419446D01*
X116263062Y-77479585D01*
X116212178Y-77522788D01*
X116175374Y-77535759D01*
X116123434Y-77542856D01*
X116072999Y-77541340D01*
X116036983Y-77530632D01*
X116033158Y-77527966D01*
X116022998Y-77509337D01*
X116030048Y-77476505D01*
X116042297Y-77450735D01*
X116061939Y-77440006D01*
X116099191Y-77440539D01*
X116150908Y-77437462D01*
X116184701Y-77416212D01*
X116196114Y-77376877D01*
X116196104Y-77375747D01*
X116189187Y-77352913D01*
X116165659Y-77331963D01*
X116119914Y-77307815D01*
X116057704Y-77278741D01*
X116016499Y-77262925D01*
X115992712Y-77263944D01*
X115981597Y-77284837D01*
X115978408Y-77328641D01*
X115978400Y-77398393D01*
X115978044Y-77441452D01*
X115976413Y-77494626D01*
X115973761Y-77531022D01*
X115970422Y-77544514D01*
X115969530Y-77544423D01*
X115950237Y-77537110D01*
X115918284Y-77521678D01*
X115874124Y-77498842D01*
X115879371Y-77293078D01*
X115879736Y-77279432D01*
X115883904Y-77183651D01*
X115891268Y-77111462D01*
X115903330Y-77058058D01*
X115921593Y-77018633D01*
X115947560Y-76988380D01*
X115982733Y-76962493D01*
X115983384Y-76962087D01*
X116040256Y-76940968D01*
X116106033Y-76937400D01*
X116169483Y-76950569D01*
G37*
X116193933Y-72232371D02*
X116269856Y-72232865D01*
X116324491Y-72234135D01*
X116361500Y-72236547D01*
X116384547Y-72240467D01*
X116397296Y-72246262D01*
X116403411Y-72254299D01*
X116406556Y-72264943D01*
X116406646Y-72265325D01*
X116411814Y-72290347D01*
X116421209Y-72338681D01*
X116433867Y-72405260D01*
X116448825Y-72485014D01*
X116465119Y-72572875D01*
X116466448Y-72580064D01*
X116482691Y-72665340D01*
X116497805Y-72740242D01*
X116510808Y-72800219D01*
X116520715Y-72840717D01*
X116526544Y-72857184D01*
X116526575Y-72857210D01*
X116544943Y-72866320D01*
X116582640Y-72881457D01*
X116631543Y-72899358D01*
X116634297Y-72900330D01*
X116696817Y-72923959D01*
X116769543Y-72953595D01*
X116837294Y-72983062D01*
X116948703Y-73033626D01*
X117195399Y-72865160D01*
X117212775Y-72853311D01*
X117287202Y-72802947D01*
X117353614Y-72758612D01*
X117408039Y-72722916D01*
X117446506Y-72698471D01*
X117465042Y-72687889D01*
X117477743Y-72690315D01*
X117506579Y-72709110D01*
X117551143Y-72746330D01*
X117612670Y-72803020D01*
X117692398Y-72880227D01*
X117699532Y-72887255D01*
X117762796Y-72950222D01*
X117818990Y-73007268D01*
X117864677Y-73054817D01*
X117896414Y-73089297D01*
X117910764Y-73107131D01*
X117910810Y-73107217D01*
X117912633Y-73120795D01*
X117905910Y-73142820D01*
X117888946Y-73176304D01*
X117860044Y-73224261D01*
X117817508Y-73289704D01*
X117759644Y-73375645D01*
X117749783Y-73390151D01*
X117699913Y-73463635D01*
X117655905Y-73528687D01*
X117620380Y-73581417D01*
X117595959Y-73617936D01*
X117585264Y-73634356D01*
X117584458Y-73637834D01*
X117589518Y-73663785D01*
X117604677Y-73706159D01*
X117627463Y-73757728D01*
X117658429Y-73825170D01*
X117693004Y-73905195D01*
X117722366Y-73977629D01*
X117729645Y-73996377D01*
X117748710Y-74044246D01*
X117762715Y-74077596D01*
X117769041Y-74090114D01*
X117776025Y-74091050D01*
X117807413Y-74096461D01*
X117858787Y-74105806D01*
X117924802Y-74118069D01*
X118000113Y-74132232D01*
X118079375Y-74147280D01*
X118157243Y-74162195D01*
X118228370Y-74175961D01*
X118287412Y-74187562D01*
X118329022Y-74195980D01*
X118347857Y-74200199D01*
X118350980Y-74201389D01*
X118358591Y-74207805D01*
X118364254Y-74221465D01*
X118368251Y-74245999D01*
X118370866Y-74285038D01*
X118372384Y-74342213D01*
X118373086Y-74421154D01*
X118373257Y-74525492D01*
X118373257Y-74842799D01*
X118297057Y-74857839D01*
X118287840Y-74859642D01*
X118238891Y-74868980D01*
X118171205Y-74881669D01*
X118092478Y-74896273D01*
X118010400Y-74911355D01*
X117978078Y-74917422D01*
X117905855Y-74932181D01*
X117845666Y-74946137D01*
X117803040Y-74957952D01*
X117783510Y-74966287D01*
X117774660Y-74979905D01*
X117758548Y-75015938D01*
X117742065Y-75062572D01*
X117736263Y-75080034D01*
X117714906Y-75137358D01*
X117687359Y-75205201D01*
X117658107Y-75272355D01*
X117642463Y-75307430D01*
X117620174Y-75359822D01*
X117604857Y-75399058D01*
X117599162Y-75418563D01*
X117599478Y-75420036D01*
X117610281Y-75440729D01*
X117634638Y-75480665D01*
X117670081Y-75535972D01*
X117714136Y-75602781D01*
X117764332Y-75677220D01*
X117929501Y-75919623D01*
X117712503Y-76136983D01*
X117691516Y-76157899D01*
X117627342Y-76220505D01*
X117569990Y-76274495D01*
X117522820Y-76316826D01*
X117489192Y-76344457D01*
X117472467Y-76354343D01*
X117454303Y-76346821D01*
X117416265Y-76325227D01*
X117362726Y-76292151D01*
X117297884Y-76250191D01*
X117225940Y-76201943D01*
X117155275Y-76154291D01*
X117091526Y-76112328D01*
X117039513Y-76079165D01*
X117003279Y-76057378D01*
X116986867Y-76049543D01*
X116985905Y-76049614D01*
X116964103Y-76057338D01*
X116925440Y-76075323D01*
X116877612Y-76100013D01*
X116877110Y-76100284D01*
X116813587Y-76132099D01*
X116770060Y-76147642D01*
X116743052Y-76147685D01*
X116729090Y-76133000D01*
X116723180Y-76118544D01*
X116707229Y-76079831D01*
X116682660Y-76020316D01*
X116650779Y-75943165D01*
X116612893Y-75851541D01*
X116570310Y-75748607D01*
X116524337Y-75637526D01*
X116482667Y-75536472D01*
X116440268Y-75432780D01*
X116402756Y-75340119D01*
X116371388Y-75261642D01*
X116347425Y-75200500D01*
X116332123Y-75159843D01*
X116326743Y-75142825D01*
X116337018Y-75127219D01*
X116365563Y-75101162D01*
X116405971Y-75070887D01*
X116502979Y-74991684D01*
X116589793Y-74890475D01*
X116653322Y-74779116D01*
X116693177Y-74660893D01*
X116708965Y-74539095D01*
X116700296Y-74417010D01*
X116666778Y-74297925D01*
X116608021Y-74185129D01*
X116523632Y-74081911D01*
X116479631Y-74041713D01*
X116374211Y-73970638D01*
X116261410Y-73924301D01*
X116144525Y-73901599D01*
X116026853Y-73901428D01*
X115911690Y-73922687D01*
X115802335Y-73964270D01*
X115702083Y-74025076D01*
X115614233Y-74104001D01*
X115542080Y-74199941D01*
X115488922Y-74311795D01*
X115458057Y-74438457D01*
X115452392Y-74499507D01*
X115460185Y-74631776D01*
X115495284Y-74757266D01*
X115556649Y-74873759D01*
X115643243Y-74979039D01*
X115754029Y-75070887D01*
X115792931Y-75099930D01*
X115822104Y-75126272D01*
X115833257Y-75142800D01*
X115828810Y-75157209D01*
X115814378Y-75195815D01*
X115791173Y-75255201D01*
X115760452Y-75332215D01*
X115723474Y-75423703D01*
X115681496Y-75526516D01*
X115635778Y-75637502D01*
X115594178Y-75738072D01*
X115551222Y-75841947D01*
X115512829Y-75934819D01*
X115480305Y-76013525D01*
X115454958Y-76074899D01*
X115438095Y-76115779D01*
X115431025Y-76133000D01*
X115430943Y-76133204D01*
X115416798Y-76147745D01*
X115389659Y-76147579D01*
X115346023Y-76131927D01*
X115282388Y-76100013D01*
X115277379Y-76097326D01*
X115230125Y-76073150D01*
X115192811Y-76056037D01*
X115173133Y-76049543D01*
X115157005Y-76057218D01*
X115120959Y-76078871D01*
X115069092Y-76111928D01*
X115005445Y-76153810D01*
X114934060Y-76201943D01*
X114863724Y-76249131D01*
X114798670Y-76291267D01*
X114744820Y-76324578D01*
X114706374Y-76346469D01*
X114687534Y-76354343D01*
X114684325Y-76353343D01*
X114661954Y-76337584D01*
X114623733Y-76305033D01*
X114573021Y-76258733D01*
X114513181Y-76201726D01*
X114447571Y-76137058D01*
X114230648Y-75919772D01*
X114399601Y-75671253D01*
X114568553Y-75422733D01*
X114517183Y-75311595D01*
X114517031Y-75311266D01*
X114486183Y-75240418D01*
X114454661Y-75161523D01*
X114429266Y-75091600D01*
X114425423Y-75080322D01*
X114406047Y-75027967D01*
X114388574Y-74987283D01*
X114376388Y-74966287D01*
X114371426Y-74963322D01*
X114341634Y-74953375D01*
X114291047Y-74940505D01*
X114225194Y-74926053D01*
X114149600Y-74911355D01*
X114126957Y-74907210D01*
X114045038Y-74892116D01*
X113968600Y-74877899D01*
X113905337Y-74865995D01*
X113862943Y-74857839D01*
X113786743Y-74842799D01*
X113786743Y-74525492D01*
X113786760Y-74486476D01*
X113787082Y-74391292D01*
X113788033Y-74320255D01*
X113789896Y-74269734D01*
X113792955Y-74236098D01*
X113797494Y-74215718D01*
X113803795Y-74204962D01*
X113812143Y-74200199D01*
X113820224Y-74198270D01*
X113853172Y-74191445D01*
X113905736Y-74181022D01*
X113972569Y-74168018D01*
X114048328Y-74153449D01*
X114127665Y-74138333D01*
X114205237Y-74123685D01*
X114275698Y-74110523D01*
X114333702Y-74099863D01*
X114373904Y-74092721D01*
X114390959Y-74090114D01*
X114392112Y-74088541D01*
X114401385Y-74068119D01*
X114417432Y-74029045D01*
X114437635Y-73977629D01*
X114465672Y-73908353D01*
X114500186Y-73828290D01*
X114532538Y-73757728D01*
X114539952Y-73741889D01*
X114560755Y-73692293D01*
X114573219Y-73654038D01*
X114574863Y-73634356D01*
X114574015Y-73632962D01*
X114560548Y-73612420D01*
X114533850Y-73572516D01*
X114496539Y-73517140D01*
X114451234Y-73450177D01*
X114400552Y-73375517D01*
X114343445Y-73290692D01*
X114300607Y-73224800D01*
X114271460Y-73176478D01*
X114254317Y-73142733D01*
X114247495Y-73120572D01*
X114249306Y-73107002D01*
X114249915Y-73105984D01*
X114266297Y-73086210D01*
X114299695Y-73050175D01*
X114346671Y-73001451D01*
X114403786Y-72943612D01*
X114467603Y-72880227D01*
X114533802Y-72815905D01*
X114598648Y-72755447D01*
X114646299Y-72714655D01*
X114677990Y-72692484D01*
X114694958Y-72687889D01*
X114697175Y-72688921D01*
X114720524Y-72702837D01*
X114762912Y-72730030D01*
X114820369Y-72767889D01*
X114888923Y-72813803D01*
X114964601Y-72865160D01*
X115211298Y-73033626D01*
X115322706Y-72983062D01*
X115325943Y-72981597D01*
X115394343Y-72951965D01*
X115466907Y-72922493D01*
X115528457Y-72899358D01*
X115528729Y-72899262D01*
X115577595Y-72881367D01*
X115615212Y-72866253D01*
X115633457Y-72857184D01*
X115633752Y-72856855D01*
X115639946Y-72838282D01*
X115650139Y-72796045D01*
X115663348Y-72734696D01*
X115678590Y-72658789D01*
X115694881Y-72572875D01*
X115695449Y-72569796D01*
X115711713Y-72482128D01*
X115726608Y-72402741D01*
X115739171Y-72336701D01*
X115748438Y-72289079D01*
X115753444Y-72264943D01*
X115753764Y-72263605D01*
X115757060Y-72253273D01*
X115763738Y-72245506D01*
X115777462Y-72239940D01*
X115801895Y-72236207D01*
X115840702Y-72233942D01*
X115897546Y-72232778D01*
X115976090Y-72232348D01*
X116080000Y-72232286D01*
X116093056Y-72232286D01*
X116193933Y-72232371D01*
G36*
X116193933Y-72232371D02*
G01*
X116269856Y-72232865D01*
X116324491Y-72234135D01*
X116361500Y-72236547D01*
X116384547Y-72240467D01*
X116397296Y-72246262D01*
X116403411Y-72254299D01*
X116406556Y-72264943D01*
X116406646Y-72265325D01*
X116411814Y-72290347D01*
X116421209Y-72338681D01*
X116433867Y-72405260D01*
X116448825Y-72485014D01*
X116465119Y-72572875D01*
X116466448Y-72580064D01*
X116482691Y-72665340D01*
X116497805Y-72740242D01*
X116510808Y-72800219D01*
X116520715Y-72840717D01*
X116526544Y-72857184D01*
X116526575Y-72857210D01*
X116544943Y-72866320D01*
X116582640Y-72881457D01*
X116631543Y-72899358D01*
X116634297Y-72900330D01*
X116696817Y-72923959D01*
X116769543Y-72953595D01*
X116837294Y-72983062D01*
X116948703Y-73033626D01*
X117195399Y-72865160D01*
X117212775Y-72853311D01*
X117287202Y-72802947D01*
X117353614Y-72758612D01*
X117408039Y-72722916D01*
X117446506Y-72698471D01*
X117465042Y-72687889D01*
X117477743Y-72690315D01*
X117506579Y-72709110D01*
X117551143Y-72746330D01*
X117612670Y-72803020D01*
X117692398Y-72880227D01*
X117699532Y-72887255D01*
X117762796Y-72950222D01*
X117818990Y-73007268D01*
X117864677Y-73054817D01*
X117896414Y-73089297D01*
X117910764Y-73107131D01*
X117910810Y-73107217D01*
X117912633Y-73120795D01*
X117905910Y-73142820D01*
X117888946Y-73176304D01*
X117860044Y-73224261D01*
X117817508Y-73289704D01*
X117759644Y-73375645D01*
X117749783Y-73390151D01*
X117699913Y-73463635D01*
X117655905Y-73528687D01*
X117620380Y-73581417D01*
X117595959Y-73617936D01*
X117585264Y-73634356D01*
X117584458Y-73637834D01*
X117589518Y-73663785D01*
X117604677Y-73706159D01*
X117627463Y-73757728D01*
X117658429Y-73825170D01*
X117693004Y-73905195D01*
X117722366Y-73977629D01*
X117729645Y-73996377D01*
X117748710Y-74044246D01*
X117762715Y-74077596D01*
X117769041Y-74090114D01*
X117776025Y-74091050D01*
X117807413Y-74096461D01*
X117858787Y-74105806D01*
X117924802Y-74118069D01*
X118000113Y-74132232D01*
X118079375Y-74147280D01*
X118157243Y-74162195D01*
X118228370Y-74175961D01*
X118287412Y-74187562D01*
X118329022Y-74195980D01*
X118347857Y-74200199D01*
X118350980Y-74201389D01*
X118358591Y-74207805D01*
X118364254Y-74221465D01*
X118368251Y-74245999D01*
X118370866Y-74285038D01*
X118372384Y-74342213D01*
X118373086Y-74421154D01*
X118373257Y-74525492D01*
X118373257Y-74842799D01*
X118297057Y-74857839D01*
X118287840Y-74859642D01*
X118238891Y-74868980D01*
X118171205Y-74881669D01*
X118092478Y-74896273D01*
X118010400Y-74911355D01*
X117978078Y-74917422D01*
X117905855Y-74932181D01*
X117845666Y-74946137D01*
X117803040Y-74957952D01*
X117783510Y-74966287D01*
X117774660Y-74979905D01*
X117758548Y-75015938D01*
X117742065Y-75062572D01*
X117736263Y-75080034D01*
X117714906Y-75137358D01*
X117687359Y-75205201D01*
X117658107Y-75272355D01*
X117642463Y-75307430D01*
X117620174Y-75359822D01*
X117604857Y-75399058D01*
X117599162Y-75418563D01*
X117599478Y-75420036D01*
X117610281Y-75440729D01*
X117634638Y-75480665D01*
X117670081Y-75535972D01*
X117714136Y-75602781D01*
X117764332Y-75677220D01*
X117929501Y-75919623D01*
X117712503Y-76136983D01*
X117691516Y-76157899D01*
X117627342Y-76220505D01*
X117569990Y-76274495D01*
X117522820Y-76316826D01*
X117489192Y-76344457D01*
X117472467Y-76354343D01*
X117454303Y-76346821D01*
X117416265Y-76325227D01*
X117362726Y-76292151D01*
X117297884Y-76250191D01*
X117225940Y-76201943D01*
X117155275Y-76154291D01*
X117091526Y-76112328D01*
X117039513Y-76079165D01*
X117003279Y-76057378D01*
X116986867Y-76049543D01*
X116985905Y-76049614D01*
X116964103Y-76057338D01*
X116925440Y-76075323D01*
X116877612Y-76100013D01*
X116877110Y-76100284D01*
X116813587Y-76132099D01*
X116770060Y-76147642D01*
X116743052Y-76147685D01*
X116729090Y-76133000D01*
X116723180Y-76118544D01*
X116707229Y-76079831D01*
X116682660Y-76020316D01*
X116650779Y-75943165D01*
X116612893Y-75851541D01*
X116570310Y-75748607D01*
X116524337Y-75637526D01*
X116482667Y-75536472D01*
X116440268Y-75432780D01*
X116402756Y-75340119D01*
X116371388Y-75261642D01*
X116347425Y-75200500D01*
X116332123Y-75159843D01*
X116326743Y-75142825D01*
X116337018Y-75127219D01*
X116365563Y-75101162D01*
X116405971Y-75070887D01*
X116502979Y-74991684D01*
X116589793Y-74890475D01*
X116653322Y-74779116D01*
X116693177Y-74660893D01*
X116708965Y-74539095D01*
X116700296Y-74417010D01*
X116666778Y-74297925D01*
X116608021Y-74185129D01*
X116523632Y-74081911D01*
X116479631Y-74041713D01*
X116374211Y-73970638D01*
X116261410Y-73924301D01*
X116144525Y-73901599D01*
X116026853Y-73901428D01*
X115911690Y-73922687D01*
X115802335Y-73964270D01*
X115702083Y-74025076D01*
X115614233Y-74104001D01*
X115542080Y-74199941D01*
X115488922Y-74311795D01*
X115458057Y-74438457D01*
X115452392Y-74499507D01*
X115460185Y-74631776D01*
X115495284Y-74757266D01*
X115556649Y-74873759D01*
X115643243Y-74979039D01*
X115754029Y-75070887D01*
X115792931Y-75099930D01*
X115822104Y-75126272D01*
X115833257Y-75142800D01*
X115828810Y-75157209D01*
X115814378Y-75195815D01*
X115791173Y-75255201D01*
X115760452Y-75332215D01*
X115723474Y-75423703D01*
X115681496Y-75526516D01*
X115635778Y-75637502D01*
X115594178Y-75738072D01*
X115551222Y-75841947D01*
X115512829Y-75934819D01*
X115480305Y-76013525D01*
X115454958Y-76074899D01*
X115438095Y-76115779D01*
X115431025Y-76133000D01*
X115430943Y-76133204D01*
X115416798Y-76147745D01*
X115389659Y-76147579D01*
X115346023Y-76131927D01*
X115282388Y-76100013D01*
X115277379Y-76097326D01*
X115230125Y-76073150D01*
X115192811Y-76056037D01*
X115173133Y-76049543D01*
X115157005Y-76057218D01*
X115120959Y-76078871D01*
X115069092Y-76111928D01*
X115005445Y-76153810D01*
X114934060Y-76201943D01*
X114863724Y-76249131D01*
X114798670Y-76291267D01*
X114744820Y-76324578D01*
X114706374Y-76346469D01*
X114687534Y-76354343D01*
X114684325Y-76353343D01*
X114661954Y-76337584D01*
X114623733Y-76305033D01*
X114573021Y-76258733D01*
X114513181Y-76201726D01*
X114447571Y-76137058D01*
X114230648Y-75919772D01*
X114399601Y-75671253D01*
X114568553Y-75422733D01*
X114517183Y-75311595D01*
X114517031Y-75311266D01*
X114486183Y-75240418D01*
X114454661Y-75161523D01*
X114429266Y-75091600D01*
X114425423Y-75080322D01*
X114406047Y-75027967D01*
X114388574Y-74987283D01*
X114376388Y-74966287D01*
X114371426Y-74963322D01*
X114341634Y-74953375D01*
X114291047Y-74940505D01*
X114225194Y-74926053D01*
X114149600Y-74911355D01*
X114126957Y-74907210D01*
X114045038Y-74892116D01*
X113968600Y-74877899D01*
X113905337Y-74865995D01*
X113862943Y-74857839D01*
X113786743Y-74842799D01*
X113786743Y-74525492D01*
X113786760Y-74486476D01*
X113787082Y-74391292D01*
X113788033Y-74320255D01*
X113789896Y-74269734D01*
X113792955Y-74236098D01*
X113797494Y-74215718D01*
X113803795Y-74204962D01*
X113812143Y-74200199D01*
X113820224Y-74198270D01*
X113853172Y-74191445D01*
X113905736Y-74181022D01*
X113972569Y-74168018D01*
X114048328Y-74153449D01*
X114127665Y-74138333D01*
X114205237Y-74123685D01*
X114275698Y-74110523D01*
X114333702Y-74099863D01*
X114373904Y-74092721D01*
X114390959Y-74090114D01*
X114392112Y-74088541D01*
X114401385Y-74068119D01*
X114417432Y-74029045D01*
X114437635Y-73977629D01*
X114465672Y-73908353D01*
X114500186Y-73828290D01*
X114532538Y-73757728D01*
X114539952Y-73741889D01*
X114560755Y-73692293D01*
X114573219Y-73654038D01*
X114574863Y-73634356D01*
X114574015Y-73632962D01*
X114560548Y-73612420D01*
X114533850Y-73572516D01*
X114496539Y-73517140D01*
X114451234Y-73450177D01*
X114400552Y-73375517D01*
X114343445Y-73290692D01*
X114300607Y-73224800D01*
X114271460Y-73176478D01*
X114254317Y-73142733D01*
X114247495Y-73120572D01*
X114249306Y-73107002D01*
X114249915Y-73105984D01*
X114266297Y-73086210D01*
X114299695Y-73050175D01*
X114346671Y-73001451D01*
X114403786Y-72943612D01*
X114467603Y-72880227D01*
X114533802Y-72815905D01*
X114598648Y-72755447D01*
X114646299Y-72714655D01*
X114677990Y-72692484D01*
X114694958Y-72687889D01*
X114697175Y-72688921D01*
X114720524Y-72702837D01*
X114762912Y-72730030D01*
X114820369Y-72767889D01*
X114888923Y-72813803D01*
X114964601Y-72865160D01*
X115211298Y-73033626D01*
X115322706Y-72983062D01*
X115325943Y-72981597D01*
X115394343Y-72951965D01*
X115466907Y-72922493D01*
X115528457Y-72899358D01*
X115528729Y-72899262D01*
X115577595Y-72881367D01*
X115615212Y-72866253D01*
X115633457Y-72857184D01*
X115633752Y-72856855D01*
X115639946Y-72838282D01*
X115650139Y-72796045D01*
X115663348Y-72734696D01*
X115678590Y-72658789D01*
X115694881Y-72572875D01*
X115695449Y-72569796D01*
X115711713Y-72482128D01*
X115726608Y-72402741D01*
X115739171Y-72336701D01*
X115748438Y-72289079D01*
X115753444Y-72264943D01*
X115753764Y-72263605D01*
X115757060Y-72253273D01*
X115763738Y-72245506D01*
X115777462Y-72239940D01*
X115801895Y-72236207D01*
X115840702Y-72233942D01*
X115897546Y-72232778D01*
X115976090Y-72232348D01*
X116080000Y-72232286D01*
X116093056Y-72232286D01*
X116193933Y-72232371D01*
G37*
X114047495Y-76936220D02*
X114078599Y-76944121D01*
X114107559Y-76963817D01*
X114144831Y-77000484D01*
X114168801Y-77026378D01*
X114193770Y-77059997D01*
X114205031Y-77091506D01*
X114207657Y-77131485D01*
X114207657Y-77196917D01*
X114163035Y-77173842D01*
X114127673Y-77145724D01*
X114103451Y-77107848D01*
X114099291Y-77097551D01*
X114067594Y-77057637D01*
X114023554Y-77037624D01*
X113975531Y-77039572D01*
X113931886Y-77065543D01*
X113913420Y-77086635D01*
X113902663Y-77113619D01*
X113914178Y-77137634D01*
X113949981Y-77161791D01*
X114012090Y-77189199D01*
X114021515Y-77192985D01*
X114078058Y-77217759D01*
X114126580Y-77242189D01*
X114157451Y-77261486D01*
X114188371Y-77295953D01*
X114208927Y-77350957D01*
X114206744Y-77409983D01*
X114182424Y-77465845D01*
X114136568Y-77511355D01*
X114099438Y-77530727D01*
X114027711Y-77544292D01*
X113987852Y-77542462D01*
X113950953Y-77532568D01*
X113936797Y-77511806D01*
X113942091Y-77477613D01*
X113943631Y-77473092D01*
X113955842Y-77449116D01*
X113976174Y-77440042D01*
X114014908Y-77440649D01*
X114042257Y-77441474D01*
X114074257Y-77434392D01*
X114096182Y-77413219D01*
X114108670Y-77387152D01*
X114110062Y-77359845D01*
X114109998Y-77359685D01*
X114093807Y-77344930D01*
X114059155Y-77323457D01*
X114014321Y-77299458D01*
X113967582Y-77277125D01*
X113927217Y-77260652D01*
X113901504Y-77254229D01*
X113897679Y-77260518D01*
X113892864Y-77290115D01*
X113889566Y-77338447D01*
X113888343Y-77399372D01*
X113888058Y-77441542D01*
X113886718Y-77494653D01*
X113884528Y-77531025D01*
X113881769Y-77544514D01*
X113867344Y-77539981D01*
X113838226Y-77527670D01*
X113801257Y-77510826D01*
X113801257Y-77294721D01*
X113801493Y-77239327D01*
X113803729Y-77155207D01*
X113809423Y-77092800D01*
X113819903Y-77047358D01*
X113836497Y-77014133D01*
X113860531Y-76988378D01*
X113893333Y-76965344D01*
X113935124Y-76946335D01*
X114012287Y-76934914D01*
X114047495Y-76936220D01*
G36*
X114047495Y-76936220D02*
G01*
X114078599Y-76944121D01*
X114107559Y-76963817D01*
X114144831Y-77000484D01*
X114168801Y-77026378D01*
X114193770Y-77059997D01*
X114205031Y-77091506D01*
X114207657Y-77131485D01*
X114207657Y-77196917D01*
X114163035Y-77173842D01*
X114127673Y-77145724D01*
X114103451Y-77107848D01*
X114099291Y-77097551D01*
X114067594Y-77057637D01*
X114023554Y-77037624D01*
X113975531Y-77039572D01*
X113931886Y-77065543D01*
X113913420Y-77086635D01*
X113902663Y-77113619D01*
X113914178Y-77137634D01*
X113949981Y-77161791D01*
X114012090Y-77189199D01*
X114021515Y-77192985D01*
X114078058Y-77217759D01*
X114126580Y-77242189D01*
X114157451Y-77261486D01*
X114188371Y-77295953D01*
X114208927Y-77350957D01*
X114206744Y-77409983D01*
X114182424Y-77465845D01*
X114136568Y-77511355D01*
X114099438Y-77530727D01*
X114027711Y-77544292D01*
X113987852Y-77542462D01*
X113950953Y-77532568D01*
X113936797Y-77511806D01*
X113942091Y-77477613D01*
X113943631Y-77473092D01*
X113955842Y-77449116D01*
X113976174Y-77440042D01*
X114014908Y-77440649D01*
X114042257Y-77441474D01*
X114074257Y-77434392D01*
X114096182Y-77413219D01*
X114108670Y-77387152D01*
X114110062Y-77359845D01*
X114109998Y-77359685D01*
X114093807Y-77344930D01*
X114059155Y-77323457D01*
X114014321Y-77299458D01*
X113967582Y-77277125D01*
X113927217Y-77260652D01*
X113901504Y-77254229D01*
X113897679Y-77260518D01*
X113892864Y-77290115D01*
X113889566Y-77338447D01*
X113888343Y-77399372D01*
X113888058Y-77441542D01*
X113886718Y-77494653D01*
X113884528Y-77531025D01*
X113881769Y-77544514D01*
X113867344Y-77539981D01*
X113838226Y-77527670D01*
X113801257Y-77510826D01*
X113801257Y-77294721D01*
X113801493Y-77239327D01*
X113803729Y-77155207D01*
X113809423Y-77092800D01*
X113819903Y-77047358D01*
X113836497Y-77014133D01*
X113860531Y-76988378D01*
X113893333Y-76965344D01*
X113935124Y-76946335D01*
X114012287Y-76934914D01*
X114047495Y-76936220D01*
G37*
X118242299Y-77184055D02*
X118237684Y-77294078D01*
X118235078Y-77317387D01*
X118215660Y-77400352D01*
X118180573Y-77463448D01*
X118127212Y-77511808D01*
X118124196Y-77513804D01*
X118056362Y-77542185D01*
X117985535Y-77544711D01*
X117917289Y-77523097D01*
X117857196Y-77479062D01*
X117810829Y-77414322D01*
X117810050Y-77412761D01*
X117794643Y-77372558D01*
X117783357Y-77326866D01*
X117777370Y-77283972D01*
X117777861Y-77252160D01*
X117786007Y-77239714D01*
X117793244Y-77240471D01*
X117827851Y-77254235D01*
X117867078Y-77279546D01*
X117900448Y-77308845D01*
X117917483Y-77334572D01*
X117935192Y-77369471D01*
X117971485Y-77401212D01*
X118013630Y-77413886D01*
X118029077Y-77410221D01*
X118059569Y-77391774D01*
X118086128Y-77366166D01*
X118097486Y-77342934D01*
X118097482Y-77342848D01*
X118084596Y-77332179D01*
X118050241Y-77312933D01*
X117999593Y-77287813D01*
X117937829Y-77259524D01*
X117937489Y-77259374D01*
X117870388Y-77229498D01*
X117825411Y-77207973D01*
X117798145Y-77191437D01*
X117784178Y-77176531D01*
X117779097Y-77159893D01*
X117778490Y-77138162D01*
X117782712Y-77097013D01*
X117926000Y-77097013D01*
X117940791Y-77109949D01*
X117977644Y-77129333D01*
X117978725Y-77129881D01*
X118022205Y-77150587D01*
X118061102Y-77167105D01*
X118085778Y-77174093D01*
X118095676Y-77164753D01*
X118097486Y-77132748D01*
X118089966Y-77092915D01*
X118063897Y-77056717D01*
X118026154Y-77037950D01*
X117984077Y-77039845D01*
X117945005Y-77065632D01*
X117929647Y-77083451D01*
X117926000Y-77097013D01*
X117782712Y-77097013D01*
X117783833Y-77086086D01*
X117810251Y-77015335D01*
X117854473Y-76959735D01*
X117911697Y-76921239D01*
X117977120Y-76901797D01*
X118045937Y-76903359D01*
X118113347Y-76927878D01*
X118174544Y-76977302D01*
X118208450Y-77026212D01*
X118232806Y-77096027D01*
X118236767Y-77132748D01*
X118242299Y-77184055D01*
G36*
X118242299Y-77184055D02*
G01*
X118237684Y-77294078D01*
X118235078Y-77317387D01*
X118215660Y-77400352D01*
X118180573Y-77463448D01*
X118127212Y-77511808D01*
X118124196Y-77513804D01*
X118056362Y-77542185D01*
X117985535Y-77544711D01*
X117917289Y-77523097D01*
X117857196Y-77479062D01*
X117810829Y-77414322D01*
X117810050Y-77412761D01*
X117794643Y-77372558D01*
X117783357Y-77326866D01*
X117777370Y-77283972D01*
X117777861Y-77252160D01*
X117786007Y-77239714D01*
X117793244Y-77240471D01*
X117827851Y-77254235D01*
X117867078Y-77279546D01*
X117900448Y-77308845D01*
X117917483Y-77334572D01*
X117935192Y-77369471D01*
X117971485Y-77401212D01*
X118013630Y-77413886D01*
X118029077Y-77410221D01*
X118059569Y-77391774D01*
X118086128Y-77366166D01*
X118097486Y-77342934D01*
X118097482Y-77342848D01*
X118084596Y-77332179D01*
X118050241Y-77312933D01*
X117999593Y-77287813D01*
X117937829Y-77259524D01*
X117937489Y-77259374D01*
X117870388Y-77229498D01*
X117825411Y-77207973D01*
X117798145Y-77191437D01*
X117784178Y-77176531D01*
X117779097Y-77159893D01*
X117778490Y-77138162D01*
X117782712Y-77097013D01*
X117926000Y-77097013D01*
X117940791Y-77109949D01*
X117977644Y-77129333D01*
X117978725Y-77129881D01*
X118022205Y-77150587D01*
X118061102Y-77167105D01*
X118085778Y-77174093D01*
X118095676Y-77164753D01*
X118097486Y-77132748D01*
X118089966Y-77092915D01*
X118063897Y-77056717D01*
X118026154Y-77037950D01*
X117984077Y-77039845D01*
X117945005Y-77065632D01*
X117929647Y-77083451D01*
X117926000Y-77097013D01*
X117782712Y-77097013D01*
X117783833Y-77086086D01*
X117810251Y-77015335D01*
X117854473Y-76959735D01*
X117911697Y-76921239D01*
X117977120Y-76901797D01*
X118045937Y-76903359D01*
X118113347Y-76927878D01*
X118174544Y-76977302D01*
X118208450Y-77026212D01*
X118232806Y-77096027D01*
X118236767Y-77132748D01*
X118242299Y-77184055D01*
G37*
X115687691Y-76956467D02*
X115692273Y-76959003D01*
X115729704Y-76988057D01*
X115763170Y-77025410D01*
X115769007Y-77033852D01*
X115780165Y-77053553D01*
X115788136Y-77076935D01*
X115793618Y-77109067D01*
X115797307Y-77155019D01*
X115799899Y-77219859D01*
X115802092Y-77308657D01*
X115802402Y-77323669D01*
X115803400Y-77420999D01*
X115801994Y-77489934D01*
X115798164Y-77530948D01*
X115791889Y-77544514D01*
X115772898Y-77540452D01*
X115740638Y-77528144D01*
X115733041Y-77524545D01*
X115721176Y-77516398D01*
X115712994Y-77503004D01*
X115707643Y-77479608D01*
X115704269Y-77441455D01*
X115702019Y-77383790D01*
X115700040Y-77301857D01*
X115699498Y-77277907D01*
X115697403Y-77202266D01*
X115694683Y-77149328D01*
X115690515Y-77114075D01*
X115684079Y-77091487D01*
X115674550Y-77076544D01*
X115661106Y-77064227D01*
X115621305Y-77042634D01*
X115572341Y-77038476D01*
X115528529Y-77054999D01*
X115497008Y-77089210D01*
X115484914Y-77138114D01*
X115484578Y-77151407D01*
X115477972Y-77175472D01*
X115458470Y-77179144D01*
X115420283Y-77164813D01*
X115411438Y-77160217D01*
X115387534Y-77133186D01*
X115387061Y-77092994D01*
X115409836Y-77037409D01*
X115430727Y-77007117D01*
X115484142Y-76964084D01*
X115550074Y-76939755D01*
X115620574Y-76936443D01*
X115687691Y-76956467D01*
G36*
X115687691Y-76956467D02*
G01*
X115692273Y-76959003D01*
X115729704Y-76988057D01*
X115763170Y-77025410D01*
X115769007Y-77033852D01*
X115780165Y-77053553D01*
X115788136Y-77076935D01*
X115793618Y-77109067D01*
X115797307Y-77155019D01*
X115799899Y-77219859D01*
X115802092Y-77308657D01*
X115802402Y-77323669D01*
X115803400Y-77420999D01*
X115801994Y-77489934D01*
X115798164Y-77530948D01*
X115791889Y-77544514D01*
X115772898Y-77540452D01*
X115740638Y-77528144D01*
X115733041Y-77524545D01*
X115721176Y-77516398D01*
X115712994Y-77503004D01*
X115707643Y-77479608D01*
X115704269Y-77441455D01*
X115702019Y-77383790D01*
X115700040Y-77301857D01*
X115699498Y-77277907D01*
X115697403Y-77202266D01*
X115694683Y-77149328D01*
X115690515Y-77114075D01*
X115684079Y-77091487D01*
X115674550Y-77076544D01*
X115661106Y-77064227D01*
X115621305Y-77042634D01*
X115572341Y-77038476D01*
X115528529Y-77054999D01*
X115497008Y-77089210D01*
X115484914Y-77138114D01*
X115484578Y-77151407D01*
X115477972Y-77175472D01*
X115458470Y-77179144D01*
X115420283Y-77164813D01*
X115411438Y-77160217D01*
X115387534Y-77133186D01*
X115387061Y-77092994D01*
X115409836Y-77037409D01*
X115430727Y-77007117D01*
X115484142Y-76964084D01*
X115550074Y-76939755D01*
X115620574Y-76936443D01*
X115687691Y-76956467D01*
G37*
X118789815Y-77291524D02*
X118791252Y-77403000D01*
X118791651Y-77435339D01*
X118792929Y-77543455D01*
X118793185Y-77626186D01*
X118791634Y-77686426D01*
X118787490Y-77727073D01*
X118779964Y-77751023D01*
X118768271Y-77761171D01*
X118751624Y-77760414D01*
X118729236Y-77751648D01*
X118700321Y-77737769D01*
X118694142Y-77734808D01*
X118668413Y-77720311D01*
X118654976Y-77703065D01*
X118649834Y-77674308D01*
X118648990Y-77625283D01*
X118648952Y-77537257D01*
X118558276Y-77537257D01*
X118502498Y-77534815D01*
X118458640Y-77524908D01*
X118422218Y-77504886D01*
X118419503Y-77502929D01*
X118382546Y-77469869D01*
X118356826Y-77429931D01*
X118340606Y-77377657D01*
X118332148Y-77307588D01*
X118330083Y-77228430D01*
X118474857Y-77228430D01*
X118474882Y-77241697D01*
X118476261Y-77301584D01*
X118480687Y-77340732D01*
X118489461Y-77366153D01*
X118503886Y-77384857D01*
X118504784Y-77385750D01*
X118540237Y-77409952D01*
X118574596Y-77407567D01*
X118613403Y-77378260D01*
X118622895Y-77368244D01*
X118636876Y-77347708D01*
X118644760Y-77320997D01*
X118648245Y-77280499D01*
X118649029Y-77218603D01*
X118648350Y-77181130D01*
X118640983Y-77112980D01*
X118624168Y-77068330D01*
X118596234Y-77043926D01*
X118555509Y-77036514D01*
X118538350Y-77038094D01*
X118508660Y-77053766D01*
X118489031Y-77088691D01*
X118478188Y-77145901D01*
X118474857Y-77228430D01*
X118330083Y-77228430D01*
X118329714Y-77214267D01*
X118330253Y-77146169D01*
X118332707Y-77094587D01*
X118338158Y-77058816D01*
X118347686Y-77032015D01*
X118362371Y-77007338D01*
X118375852Y-76988480D01*
X118424799Y-76937568D01*
X118480256Y-76909918D01*
X118549928Y-76901165D01*
X118629664Y-76909890D01*
X118698595Y-76941185D01*
X118753113Y-76996381D01*
X118757223Y-77002224D01*
X118766808Y-77017753D01*
X118774151Y-77035498D01*
X118779612Y-77059290D01*
X118783550Y-77092958D01*
X118786323Y-77140333D01*
X118788292Y-77205245D01*
X118788528Y-77218603D01*
X118789815Y-77291524D01*
G36*
X118789815Y-77291524D02*
G01*
X118791252Y-77403000D01*
X118791651Y-77435339D01*
X118792929Y-77543455D01*
X118793185Y-77626186D01*
X118791634Y-77686426D01*
X118787490Y-77727073D01*
X118779964Y-77751023D01*
X118768271Y-77761171D01*
X118751624Y-77760414D01*
X118729236Y-77751648D01*
X118700321Y-77737769D01*
X118694142Y-77734808D01*
X118668413Y-77720311D01*
X118654976Y-77703065D01*
X118649834Y-77674308D01*
X118648990Y-77625283D01*
X118648952Y-77537257D01*
X118558276Y-77537257D01*
X118502498Y-77534815D01*
X118458640Y-77524908D01*
X118422218Y-77504886D01*
X118419503Y-77502929D01*
X118382546Y-77469869D01*
X118356826Y-77429931D01*
X118340606Y-77377657D01*
X118332148Y-77307588D01*
X118330083Y-77228430D01*
X118474857Y-77228430D01*
X118474882Y-77241697D01*
X118476261Y-77301584D01*
X118480687Y-77340732D01*
X118489461Y-77366153D01*
X118503886Y-77384857D01*
X118504784Y-77385750D01*
X118540237Y-77409952D01*
X118574596Y-77407567D01*
X118613403Y-77378260D01*
X118622895Y-77368244D01*
X118636876Y-77347708D01*
X118644760Y-77320997D01*
X118648245Y-77280499D01*
X118649029Y-77218603D01*
X118648350Y-77181130D01*
X118640983Y-77112980D01*
X118624168Y-77068330D01*
X118596234Y-77043926D01*
X118555509Y-77036514D01*
X118538350Y-77038094D01*
X118508660Y-77053766D01*
X118489031Y-77088691D01*
X118478188Y-77145901D01*
X118474857Y-77228430D01*
X118330083Y-77228430D01*
X118329714Y-77214267D01*
X118330253Y-77146169D01*
X118332707Y-77094587D01*
X118338158Y-77058816D01*
X118347686Y-77032015D01*
X118362371Y-77007338D01*
X118375852Y-76988480D01*
X118424799Y-76937568D01*
X118480256Y-76909918D01*
X118549928Y-76901165D01*
X118629664Y-76909890D01*
X118698595Y-76941185D01*
X118753113Y-76996381D01*
X118757223Y-77002224D01*
X118766808Y-77017753D01*
X118774151Y-77035498D01*
X118779612Y-77059290D01*
X118783550Y-77092958D01*
X118786323Y-77140333D01*
X118788292Y-77205245D01*
X118788528Y-77218603D01*
X118789815Y-77291524D01*
G37*
D13*
%TO.C,J2*%
X122342600Y-68132800D02*
X122342600Y-75812800D01*
X122342600Y-65532800D02*
X123672600Y-65532800D01*
X122342600Y-66862800D02*
X122342600Y-65532800D01*
X125002600Y-68132800D02*
X122342600Y-68132800D01*
X125002600Y-68132800D02*
X125002600Y-75812800D01*
X125002600Y-75812800D02*
X122342600Y-75812800D01*
%TO.C,J1*%
X109762600Y-75812800D02*
X107102600Y-75812800D01*
X109762600Y-68132800D02*
X109762600Y-75812800D01*
X109762600Y-68132800D02*
X107102600Y-68132800D01*
X109762600Y-66862800D02*
X109762600Y-65532800D01*
X109762600Y-65532800D02*
X108432600Y-65532800D01*
X107102600Y-68132800D02*
X107102600Y-75812800D01*
%TD*%
M02*
