%TF.GenerationSoftware,KiCad,Pcbnew,7.0.10*%
%TF.CreationDate,2024-02-08T11:38:55+02:00*%
%TF.ProjectId,NCD57201DR2G_breakout,4e434435-3732-4303-9144-5232475f6272,0.1*%
%TF.SameCoordinates,Original*%
%TF.FileFunction,Copper,L2,Bot*%
%TF.FilePolarity,Positive*%
%FSLAX46Y46*%
G04 Gerber Fmt 4.6, Leading zero omitted, Abs format (unit mm)*
G04 Created by KiCad (PCBNEW 7.0.10) date 2024-02-08 11:38:55*
%MOMM*%
%LPD*%
G01*
G04 APERTURE LIST*
%TA.AperFunction,ComponentPad*%
%ADD10O,1.700000X1.700000*%
%TD*%
%TA.AperFunction,ComponentPad*%
%ADD11R,1.700000X1.700000*%
%TD*%
%TA.AperFunction,ViaPad*%
%ADD12C,0.600000*%
%TD*%
G04 APERTURE END LIST*
D10*
%TO.P,J2,4,Pin_4*%
%TO.N,/LO*%
X123672600Y-74482800D03*
%TO.P,J2,3,Pin_3*%
%TO.N,-BATT*%
X123672600Y-71942800D03*
%TO.P,J2,2,Pin_2*%
%TO.N,/HO*%
X123672600Y-69402800D03*
%TO.P,J2,1,Pin_1*%
%TO.N,+BATT*%
X123672600Y-66862800D03*
%TD*%
%TO.P,J1,1,Pin_1*%
%TO.N,+5V*%
X108432600Y-66862800D03*
%TO.P,J1,2,Pin_2*%
%TO.N,/HIN*%
X108432600Y-69402800D03*
%TO.P,J1,3,Pin_3*%
%TO.N,/LIN*%
X108432600Y-71942800D03*
D11*
%TO.P,J1,4,Pin_4*%
%TO.N,GND1*%
X108432600Y-74482800D03*
%TD*%
D12*
%TO.N,GND1*%
X113340000Y-74490000D03*
%TD*%
%TA.AperFunction,Conductor*%
%TO.N,GND1*%
G36*
X124485139Y-63462985D02*
G01*
X124530894Y-63515789D01*
X124542100Y-63567300D01*
X124542100Y-65584772D01*
X124522415Y-65651811D01*
X124469611Y-65697566D01*
X124400453Y-65707510D01*
X124356005Y-65689930D01*
X124355116Y-65691471D01*
X124350428Y-65688764D01*
X124271182Y-65651811D01*
X124136263Y-65588897D01*
X124136259Y-65588896D01*
X124136255Y-65588894D01*
X123908013Y-65527738D01*
X123908003Y-65527736D01*
X123672601Y-65507141D01*
X123672599Y-65507141D01*
X123437196Y-65527736D01*
X123437186Y-65527738D01*
X123208944Y-65588894D01*
X123208935Y-65588898D01*
X122994771Y-65688764D01*
X122994769Y-65688765D01*
X122801197Y-65824305D01*
X122634105Y-65991397D01*
X122498565Y-66184969D01*
X122498564Y-66184971D01*
X122398698Y-66399135D01*
X122398694Y-66399144D01*
X122337538Y-66627386D01*
X122337536Y-66627396D01*
X122316941Y-66862799D01*
X122316941Y-66862800D01*
X122337536Y-67098203D01*
X122337538Y-67098213D01*
X122398694Y-67326455D01*
X122398696Y-67326459D01*
X122398697Y-67326463D01*
X122498565Y-67540630D01*
X122498567Y-67540634D01*
X122634101Y-67734195D01*
X122634106Y-67734202D01*
X122801197Y-67901293D01*
X122801203Y-67901298D01*
X122986758Y-68031225D01*
X123030383Y-68085802D01*
X123037577Y-68155300D01*
X123006054Y-68217655D01*
X122986758Y-68234375D01*
X122801197Y-68364305D01*
X122634105Y-68531397D01*
X122498565Y-68724969D01*
X122498564Y-68724971D01*
X122398698Y-68939135D01*
X122398694Y-68939144D01*
X122337538Y-69167386D01*
X122337536Y-69167396D01*
X122316941Y-69402799D01*
X122316941Y-69402800D01*
X122337536Y-69638203D01*
X122337538Y-69638213D01*
X122398694Y-69866455D01*
X122398696Y-69866459D01*
X122398697Y-69866463D01*
X122498565Y-70080630D01*
X122498567Y-70080634D01*
X122634101Y-70274195D01*
X122634106Y-70274202D01*
X122801197Y-70441293D01*
X122801203Y-70441298D01*
X122986758Y-70571225D01*
X123030383Y-70625802D01*
X123037577Y-70695300D01*
X123006054Y-70757655D01*
X122986758Y-70774375D01*
X122801197Y-70904305D01*
X122634105Y-71071397D01*
X122498565Y-71264969D01*
X122498564Y-71264971D01*
X122398698Y-71479135D01*
X122398694Y-71479144D01*
X122337538Y-71707386D01*
X122337536Y-71707396D01*
X122316941Y-71942799D01*
X122316941Y-71942800D01*
X122337536Y-72178203D01*
X122337538Y-72178213D01*
X122398694Y-72406455D01*
X122398696Y-72406459D01*
X122398697Y-72406463D01*
X122498565Y-72620630D01*
X122498567Y-72620634D01*
X122606881Y-72775321D01*
X122634101Y-72814196D01*
X122634106Y-72814202D01*
X122801197Y-72981293D01*
X122801203Y-72981298D01*
X122986758Y-73111225D01*
X123030383Y-73165802D01*
X123037577Y-73235300D01*
X123006054Y-73297655D01*
X122986758Y-73314375D01*
X122801197Y-73444305D01*
X122634105Y-73611397D01*
X122498565Y-73804969D01*
X122498564Y-73804971D01*
X122398698Y-74019135D01*
X122398694Y-74019144D01*
X122337538Y-74247386D01*
X122337536Y-74247396D01*
X122316941Y-74482799D01*
X122316941Y-74482800D01*
X122337536Y-74718203D01*
X122337538Y-74718213D01*
X122398694Y-74946455D01*
X122398696Y-74946459D01*
X122398697Y-74946463D01*
X122498565Y-75160630D01*
X122498567Y-75160634D01*
X122606881Y-75315321D01*
X122634105Y-75354201D01*
X122801199Y-75521295D01*
X122877735Y-75574886D01*
X122994765Y-75656832D01*
X122994767Y-75656833D01*
X122994770Y-75656835D01*
X123208937Y-75756703D01*
X123437192Y-75817863D01*
X123607919Y-75832800D01*
X123672599Y-75838459D01*
X123672600Y-75838459D01*
X123672601Y-75838459D01*
X123737281Y-75832800D01*
X123908008Y-75817863D01*
X124136263Y-75756703D01*
X124350430Y-75656835D01*
X124350438Y-75656829D01*
X124355122Y-75654126D01*
X124356273Y-75656119D01*
X124413174Y-75636926D01*
X124480943Y-75653932D01*
X124528759Y-75704877D01*
X124542100Y-75760828D01*
X124542100Y-77707500D01*
X124522415Y-77774539D01*
X124469611Y-77820294D01*
X124418100Y-77831500D01*
X107687100Y-77831500D01*
X107620061Y-77811815D01*
X107574306Y-77759011D01*
X107563100Y-77707500D01*
X107563100Y-75956800D01*
X107582785Y-75889761D01*
X107635589Y-75844006D01*
X107687100Y-75832800D01*
X108182600Y-75832800D01*
X108182600Y-74918301D01*
X108290285Y-74967480D01*
X108396837Y-74982800D01*
X108468363Y-74982800D01*
X108574915Y-74967480D01*
X108682600Y-74918301D01*
X108682600Y-75832800D01*
X109330428Y-75832800D01*
X109330444Y-75832799D01*
X109389972Y-75826398D01*
X109389979Y-75826396D01*
X109524686Y-75776154D01*
X109524693Y-75776150D01*
X109639787Y-75689990D01*
X109639790Y-75689987D01*
X109725950Y-75574893D01*
X109725954Y-75574886D01*
X109776196Y-75440179D01*
X109776198Y-75440172D01*
X109782599Y-75380644D01*
X109782600Y-75380627D01*
X109782600Y-74732800D01*
X108866286Y-74732800D01*
X108892093Y-74692644D01*
X108932600Y-74554689D01*
X108932600Y-74410911D01*
X108892093Y-74272956D01*
X108866286Y-74232800D01*
X109782600Y-74232800D01*
X109782600Y-73584972D01*
X109782599Y-73584955D01*
X109776198Y-73525427D01*
X109776196Y-73525420D01*
X109725954Y-73390713D01*
X109725950Y-73390706D01*
X109639790Y-73275612D01*
X109639787Y-73275609D01*
X109524693Y-73189449D01*
X109524688Y-73189446D01*
X109393128Y-73140377D01*
X109337195Y-73098505D01*
X109312778Y-73033041D01*
X109327630Y-72964768D01*
X109348775Y-72936520D01*
X109471095Y-72814201D01*
X109606635Y-72620630D01*
X109706503Y-72406463D01*
X109767663Y-72178208D01*
X109788259Y-71942800D01*
X109767663Y-71707392D01*
X109706503Y-71479137D01*
X109606635Y-71264971D01*
X109471095Y-71071399D01*
X109471094Y-71071397D01*
X109304002Y-70904306D01*
X109303996Y-70904301D01*
X109118442Y-70774375D01*
X109074817Y-70719798D01*
X109067623Y-70650300D01*
X109099146Y-70587945D01*
X109118442Y-70571225D01*
X109140626Y-70555691D01*
X109304001Y-70441295D01*
X109471095Y-70274201D01*
X109606635Y-70080630D01*
X109706503Y-69866463D01*
X109767663Y-69638208D01*
X109788259Y-69402800D01*
X109767663Y-69167392D01*
X109706503Y-68939137D01*
X109606635Y-68724971D01*
X109471095Y-68531399D01*
X109471094Y-68531397D01*
X109304002Y-68364306D01*
X109303996Y-68364301D01*
X109118442Y-68234375D01*
X109074817Y-68179798D01*
X109067623Y-68110300D01*
X109099146Y-68047945D01*
X109118442Y-68031225D01*
X109140626Y-68015691D01*
X109304001Y-67901295D01*
X109471095Y-67734201D01*
X109606635Y-67540630D01*
X109706503Y-67326463D01*
X109767663Y-67098208D01*
X109788259Y-66862800D01*
X109767663Y-66627392D01*
X109706503Y-66399137D01*
X109606635Y-66184971D01*
X109471095Y-65991399D01*
X109471094Y-65991397D01*
X109304002Y-65824306D01*
X109303995Y-65824301D01*
X109302098Y-65822973D01*
X109265121Y-65797081D01*
X109110434Y-65688767D01*
X109110430Y-65688765D01*
X109031182Y-65651811D01*
X108896263Y-65588897D01*
X108896259Y-65588896D01*
X108896255Y-65588894D01*
X108668013Y-65527738D01*
X108668003Y-65527736D01*
X108432601Y-65507141D01*
X108432599Y-65507141D01*
X108197196Y-65527736D01*
X108197186Y-65527738D01*
X107968944Y-65588894D01*
X107968935Y-65588897D01*
X107754772Y-65688764D01*
X107750085Y-65691471D01*
X107748938Y-65689484D01*
X107691992Y-65708676D01*
X107624228Y-65691652D01*
X107576425Y-65640694D01*
X107563100Y-65584773D01*
X107563100Y-63567300D01*
X107582785Y-63500261D01*
X107635589Y-63454506D01*
X107687100Y-63443300D01*
X124418100Y-63443300D01*
X124485139Y-63462985D01*
G37*
%TD.AperFunction*%
%TD*%
M02*
