%TF.GenerationSoftware,KiCad,Pcbnew,7.0.10*%
%TF.CreationDate,2024-02-08T11:38:55+02:00*%
%TF.ProjectId,NCD57201DR2G_breakout,4e434435-3732-4303-9144-5232475f6272,0.1*%
%TF.SameCoordinates,Original*%
%TF.FileFunction,Copper,L1,Top*%
%TF.FilePolarity,Positive*%
%FSLAX46Y46*%
G04 Gerber Fmt 4.6, Leading zero omitted, Abs format (unit mm)*
G04 Created by KiCad (PCBNEW 7.0.10) date 2024-02-08 11:38:55*
%MOMM*%
%LPD*%
G01*
G04 APERTURE LIST*
%TA.AperFunction,ComponentPad*%
%ADD10O,1.700000X1.700000*%
%TD*%
%TA.AperFunction,SMDPad,CuDef*%
%ADD11R,1.525000X0.700000*%
%TD*%
%TA.AperFunction,ComponentPad*%
%ADD12R,1.700000X1.700000*%
%TD*%
%TA.AperFunction,ViaPad*%
%ADD13C,0.600000*%
%TD*%
%TA.AperFunction,Conductor*%
%ADD14C,0.300000*%
%TD*%
%TA.AperFunction,Conductor*%
%ADD15C,0.200000*%
%TD*%
%TA.AperFunction,Conductor*%
%ADD16C,0.800000*%
%TD*%
G04 APERTURE END LIST*
D10*
%TO.P,J2,4,Pin_4*%
%TO.N,/LO*%
X123672600Y-74482800D03*
%TO.P,J2,3,Pin_3*%
%TO.N,-BATT*%
X123672600Y-71942800D03*
%TO.P,J2,2,Pin_2*%
%TO.N,/HO*%
X123672600Y-69402800D03*
%TO.P,J2,1,Pin_1*%
%TO.N,+BATT*%
X123672600Y-66862800D03*
%TD*%
D11*
%TO.P,IC1,1,VDD*%
%TO.N,+5V*%
X113340600Y-68732400D03*
%TO.P,IC1,2,HIN*%
%TO.N,/HIN*%
X113340600Y-70002400D03*
%TO.P,IC1,3,LIN*%
%TO.N,/LIN*%
X113340600Y-71272400D03*
%TO.P,IC1,4,GND*%
%TO.N,GND1*%
X113340600Y-72542400D03*
%TO.P,IC1,5,LO*%
%TO.N,/LO*%
X118764600Y-72542400D03*
%TO.P,IC1,6,VS*%
%TO.N,-BATT*%
X118764600Y-71272400D03*
%TO.P,IC1,7,HO*%
%TO.N,/HO*%
X118764600Y-70002400D03*
%TO.P,IC1,8,VB*%
%TO.N,+BATT*%
X118764600Y-68732400D03*
%TD*%
D10*
%TO.P,J1,1,Pin_1*%
%TO.N,+5V*%
X108432600Y-66862800D03*
%TO.P,J1,2,Pin_2*%
%TO.N,/HIN*%
X108432600Y-69402800D03*
%TO.P,J1,3,Pin_3*%
%TO.N,/LIN*%
X108432600Y-71942800D03*
D12*
%TO.P,J1,4,Pin_4*%
%TO.N,GND1*%
X108432600Y-74482800D03*
%TD*%
D13*
%TO.N,GND1*%
X113340000Y-74490000D03*
%TD*%
D14*
%TO.N,GND1*%
X110373000Y-72542400D02*
X108432600Y-74482800D01*
X113340600Y-72542400D02*
X110373000Y-72542400D01*
D15*
%TO.N,/LIN*%
X109103000Y-71272400D02*
X108432600Y-71942800D01*
X113340600Y-71272400D02*
X109103000Y-71272400D01*
%TO.N,/HIN*%
X109032200Y-70002400D02*
X108432600Y-69402800D01*
X113340600Y-70002400D02*
X109032200Y-70002400D01*
D14*
%TO.N,+5V*%
X113340600Y-68732400D02*
X110302200Y-68732400D01*
X110302200Y-68732400D02*
X108432600Y-66862800D01*
D16*
%TO.N,/LO*%
X121732200Y-72542400D02*
X123672600Y-74482800D01*
X118764600Y-72542400D02*
X121732200Y-72542400D01*
%TO.N,-BATT*%
X118764600Y-71272400D02*
X123002200Y-71272400D01*
X123002200Y-71272400D02*
X123672600Y-71942800D01*
%TO.N,/HO*%
X123073000Y-70002400D02*
X123672600Y-69402800D01*
X118764600Y-70002400D02*
X123073000Y-70002400D01*
%TO.N,+BATT*%
X118764600Y-68732400D02*
X121803000Y-68732400D01*
X121803000Y-68732400D02*
X123672600Y-66862800D01*
%TD*%
%TA.AperFunction,Conductor*%
%TO.N,GND1*%
G36*
X117301106Y-63462985D02*
G01*
X117343425Y-63508847D01*
X117418521Y-63649343D01*
X117427824Y-63671801D01*
X117477640Y-63836024D01*
X117482382Y-63859865D01*
X117499803Y-64036738D01*
X117500400Y-64048892D01*
X117500400Y-71909549D01*
X117531300Y-71966138D01*
X117526317Y-72035826D01*
X117508008Y-72084915D01*
X117508008Y-72084916D01*
X117501601Y-72144516D01*
X117501600Y-72144535D01*
X117501600Y-72940270D01*
X117501601Y-72940276D01*
X117508008Y-72999883D01*
X117558302Y-73134728D01*
X117558306Y-73134735D01*
X117644552Y-73249944D01*
X117644555Y-73249947D01*
X117759764Y-73336193D01*
X117759771Y-73336197D01*
X117769968Y-73340000D01*
X117894617Y-73386491D01*
X117954227Y-73392900D01*
X118448448Y-73392899D01*
X118486766Y-73398968D01*
X118515671Y-73408359D01*
X118576344Y-73428074D01*
X118717408Y-73442900D01*
X121307839Y-73442900D01*
X121374878Y-73462585D01*
X121395520Y-73479219D01*
X122282664Y-74366363D01*
X122316149Y-74427686D01*
X122318511Y-74464850D01*
X122316941Y-74482797D01*
X122316941Y-74482800D01*
X122337536Y-74718203D01*
X122337538Y-74718213D01*
X122398694Y-74946455D01*
X122398696Y-74946459D01*
X122398697Y-74946463D01*
X122498565Y-75160630D01*
X122498567Y-75160634D01*
X122606881Y-75315321D01*
X122634105Y-75354201D01*
X122801199Y-75521295D01*
X122897984Y-75589065D01*
X122994765Y-75656832D01*
X122994767Y-75656833D01*
X122994770Y-75656835D01*
X123208937Y-75756703D01*
X123437192Y-75817863D01*
X123607919Y-75832800D01*
X123672599Y-75838459D01*
X123672600Y-75838459D01*
X123672601Y-75838459D01*
X123737281Y-75832800D01*
X123908008Y-75817863D01*
X124136263Y-75756703D01*
X124350430Y-75656835D01*
X124350438Y-75656829D01*
X124355122Y-75654126D01*
X124356273Y-75656119D01*
X124413174Y-75636926D01*
X124480943Y-75653932D01*
X124528759Y-75704877D01*
X124542100Y-75760828D01*
X124542100Y-77707500D01*
X124522415Y-77774539D01*
X124469611Y-77820294D01*
X124418100Y-77831500D01*
X107687100Y-77831500D01*
X107620061Y-77811815D01*
X107574306Y-77759011D01*
X107563100Y-77707500D01*
X107563100Y-75956800D01*
X107582785Y-75889761D01*
X107635589Y-75844006D01*
X107687100Y-75832800D01*
X108205312Y-75832800D01*
X108216604Y-75826634D01*
X108242962Y-75823800D01*
X108622238Y-75823800D01*
X108652888Y-75832800D01*
X109330428Y-75832800D01*
X109330444Y-75832799D01*
X109397687Y-75825569D01*
X109397718Y-75825862D01*
X109415421Y-75823800D01*
X109774600Y-75823800D01*
X109774600Y-75461389D01*
X109776166Y-75447973D01*
X109775369Y-75447888D01*
X109782599Y-75380644D01*
X109782600Y-75380627D01*
X109782600Y-74709256D01*
X109777434Y-74699796D01*
X109774600Y-74673438D01*
X109774600Y-74292162D01*
X109782600Y-74264917D01*
X109782600Y-74007048D01*
X109802285Y-73940009D01*
X109822032Y-73916362D01*
X110564279Y-73224305D01*
X110626734Y-73192986D01*
X110648839Y-73191000D01*
X112114982Y-73191000D01*
X112182021Y-73210685D01*
X112214250Y-73240691D01*
X112220908Y-73249585D01*
X112220910Y-73249587D01*
X112260311Y-73279083D01*
X112302182Y-73335017D01*
X112310000Y-73378350D01*
X112310000Y-73400000D01*
X114600000Y-73400000D01*
X114600000Y-72975711D01*
X114600710Y-72962460D01*
X114603099Y-72940229D01*
X114603100Y-72940218D01*
X114603100Y-72764783D01*
X114602834Y-72764296D01*
X114600000Y-72737938D01*
X114600000Y-72346862D01*
X114603100Y-72336304D01*
X114603100Y-72144572D01*
X114603099Y-72144571D01*
X114600710Y-72122341D01*
X114600000Y-72109086D01*
X114600000Y-72000000D01*
X114580924Y-71980924D01*
X114547439Y-71919601D01*
X114552422Y-71849913D01*
X114597191Y-71729883D01*
X114603600Y-71670273D01*
X114603599Y-70874528D01*
X114597191Y-70814917D01*
X114547142Y-70680730D01*
X114542159Y-70611042D01*
X114547139Y-70594078D01*
X114597191Y-70459883D01*
X114603600Y-70400273D01*
X114603599Y-69604528D01*
X114597191Y-69544917D01*
X114547142Y-69410730D01*
X114542159Y-69341042D01*
X114547139Y-69324078D01*
X114597191Y-69189883D01*
X114603600Y-69130273D01*
X114603599Y-68334528D01*
X114597191Y-68274917D01*
X114579977Y-68228765D01*
X114546897Y-68140071D01*
X114546893Y-68140064D01*
X114460647Y-68024855D01*
X114460644Y-68024852D01*
X114345435Y-67938606D01*
X114345428Y-67938602D01*
X114210582Y-67888308D01*
X114210583Y-67888308D01*
X114150983Y-67881901D01*
X114150981Y-67881900D01*
X114150973Y-67881900D01*
X114150964Y-67881900D01*
X112530229Y-67881900D01*
X112530223Y-67881901D01*
X112470616Y-67888308D01*
X112335771Y-67938602D01*
X112335764Y-67938606D01*
X112220557Y-68024851D01*
X112220551Y-68024857D01*
X112215048Y-68032209D01*
X112159115Y-68074081D01*
X112115780Y-68081900D01*
X110623008Y-68081900D01*
X110555969Y-68062215D01*
X110535327Y-68045581D01*
X109780309Y-67290563D01*
X109746824Y-67229240D01*
X109748215Y-67170789D01*
X109749145Y-67167317D01*
X109767663Y-67098208D01*
X109788259Y-66862800D01*
X109767663Y-66627392D01*
X109706503Y-66399137D01*
X109606635Y-66184971D01*
X109471095Y-65991399D01*
X109471094Y-65991397D01*
X109304002Y-65824306D01*
X109303995Y-65824301D01*
X109302098Y-65822973D01*
X109265121Y-65797081D01*
X109110434Y-65688767D01*
X109110430Y-65688765D01*
X109110428Y-65688764D01*
X108896263Y-65588897D01*
X108896259Y-65588896D01*
X108896255Y-65588894D01*
X108668013Y-65527738D01*
X108668003Y-65527736D01*
X108432601Y-65507141D01*
X108432599Y-65507141D01*
X108197196Y-65527736D01*
X108197186Y-65527738D01*
X107968944Y-65588894D01*
X107968935Y-65588897D01*
X107754772Y-65688764D01*
X107750085Y-65691471D01*
X107748938Y-65689484D01*
X107691992Y-65708676D01*
X107624228Y-65691652D01*
X107576425Y-65640694D01*
X107563100Y-65584773D01*
X107563100Y-63567300D01*
X107582785Y-63500261D01*
X107635589Y-63454506D01*
X107687100Y-63443300D01*
X117234067Y-63443300D01*
X117301106Y-63462985D01*
G37*
%TD.AperFunction*%
%TD*%
M02*
