%TF.GenerationSoftware,KiCad,Pcbnew,7.0.10*%
%TF.CreationDate,2024-02-08T11:38:55+02:00*%
%TF.ProjectId,NCD57201DR2G_breakout,4e434435-3732-4303-9144-5232475f6272,0.1*%
%TF.SameCoordinates,Original*%
%TF.FileFunction,Legend,Top*%
%TF.FilePolarity,Positive*%
%FSLAX46Y46*%
G04 Gerber Fmt 4.6, Leading zero omitted, Abs format (unit mm)*
G04 Created by KiCad (PCBNEW 7.0.10) date 2024-02-08 11:38:55*
%MOMM*%
%LPD*%
G01*
G04 APERTURE LIST*
%ADD10C,0.100000*%
%ADD11C,0.200000*%
%ADD12C,0.125000*%
%ADD13C,0.254000*%
G04 APERTURE END LIST*
D10*
X120876497Y-69783095D02*
X120876497Y-68983095D01*
X120876497Y-69364047D02*
X121333640Y-69364047D01*
X121333640Y-69783095D02*
X121333640Y-68983095D01*
X121866973Y-68983095D02*
X122019354Y-68983095D01*
X122019354Y-68983095D02*
X122095544Y-69021190D01*
X122095544Y-69021190D02*
X122171735Y-69097380D01*
X122171735Y-69097380D02*
X122209830Y-69249761D01*
X122209830Y-69249761D02*
X122209830Y-69516428D01*
X122209830Y-69516428D02*
X122171735Y-69668809D01*
X122171735Y-69668809D02*
X122095544Y-69745000D01*
X122095544Y-69745000D02*
X122019354Y-69783095D01*
X122019354Y-69783095D02*
X121866973Y-69783095D01*
X121866973Y-69783095D02*
X121790782Y-69745000D01*
X121790782Y-69745000D02*
X121714592Y-69668809D01*
X121714592Y-69668809D02*
X121676496Y-69516428D01*
X121676496Y-69516428D02*
X121676496Y-69249761D01*
X121676496Y-69249761D02*
X121714592Y-69097380D01*
X121714592Y-69097380D02*
X121790782Y-69021190D01*
X121790782Y-69021190D02*
X121866973Y-68983095D01*
X110339817Y-72323095D02*
X109958865Y-72323095D01*
X109958865Y-72323095D02*
X109958865Y-71523095D01*
X110606484Y-72323095D02*
X110606484Y-71523095D01*
X110987436Y-72323095D02*
X110987436Y-71523095D01*
X110987436Y-71523095D02*
X111444579Y-72323095D01*
X111444579Y-72323095D02*
X111444579Y-71523095D01*
X120952687Y-66417695D02*
X121219354Y-67217695D01*
X121219354Y-67217695D02*
X121486020Y-66417695D01*
X122019353Y-66798647D02*
X122133639Y-66836742D01*
X122133639Y-66836742D02*
X122171734Y-66874838D01*
X122171734Y-66874838D02*
X122209830Y-66951028D01*
X122209830Y-66951028D02*
X122209830Y-67065314D01*
X122209830Y-67065314D02*
X122171734Y-67141504D01*
X122171734Y-67141504D02*
X122133639Y-67179600D01*
X122133639Y-67179600D02*
X122057449Y-67217695D01*
X122057449Y-67217695D02*
X121752687Y-67217695D01*
X121752687Y-67217695D02*
X121752687Y-66417695D01*
X121752687Y-66417695D02*
X122019353Y-66417695D01*
X122019353Y-66417695D02*
X122095544Y-66455790D01*
X122095544Y-66455790D02*
X122133639Y-66493885D01*
X122133639Y-66493885D02*
X122171734Y-66570076D01*
X122171734Y-66570076D02*
X122171734Y-66646266D01*
X122171734Y-66646266D02*
X122133639Y-66722457D01*
X122133639Y-66722457D02*
X122095544Y-66760552D01*
X122095544Y-66760552D02*
X122019353Y-66798647D01*
X122019353Y-66798647D02*
X121752687Y-66798647D01*
X121447925Y-74863095D02*
X121066973Y-74863095D01*
X121066973Y-74863095D02*
X121066973Y-74063095D01*
X121866973Y-74063095D02*
X122019354Y-74063095D01*
X122019354Y-74063095D02*
X122095544Y-74101190D01*
X122095544Y-74101190D02*
X122171735Y-74177380D01*
X122171735Y-74177380D02*
X122209830Y-74329761D01*
X122209830Y-74329761D02*
X122209830Y-74596428D01*
X122209830Y-74596428D02*
X122171735Y-74748809D01*
X122171735Y-74748809D02*
X122095544Y-74825000D01*
X122095544Y-74825000D02*
X122019354Y-74863095D01*
X122019354Y-74863095D02*
X121866973Y-74863095D01*
X121866973Y-74863095D02*
X121790782Y-74825000D01*
X121790782Y-74825000D02*
X121714592Y-74748809D01*
X121714592Y-74748809D02*
X121676496Y-74596428D01*
X121676496Y-74596428D02*
X121676496Y-74329761D01*
X121676496Y-74329761D02*
X121714592Y-74177380D01*
X121714592Y-74177380D02*
X121790782Y-74101190D01*
X121790782Y-74101190D02*
X121866973Y-74063095D01*
D11*
X110409743Y-64662619D02*
X110409743Y-63662619D01*
X110409743Y-63662619D02*
X110981171Y-64662619D01*
X110981171Y-64662619D02*
X110981171Y-63662619D01*
X112028790Y-64567380D02*
X111981171Y-64615000D01*
X111981171Y-64615000D02*
X111838314Y-64662619D01*
X111838314Y-64662619D02*
X111743076Y-64662619D01*
X111743076Y-64662619D02*
X111600219Y-64615000D01*
X111600219Y-64615000D02*
X111504981Y-64519761D01*
X111504981Y-64519761D02*
X111457362Y-64424523D01*
X111457362Y-64424523D02*
X111409743Y-64234047D01*
X111409743Y-64234047D02*
X111409743Y-64091190D01*
X111409743Y-64091190D02*
X111457362Y-63900714D01*
X111457362Y-63900714D02*
X111504981Y-63805476D01*
X111504981Y-63805476D02*
X111600219Y-63710238D01*
X111600219Y-63710238D02*
X111743076Y-63662619D01*
X111743076Y-63662619D02*
X111838314Y-63662619D01*
X111838314Y-63662619D02*
X111981171Y-63710238D01*
X111981171Y-63710238D02*
X112028790Y-63757857D01*
X112457362Y-64662619D02*
X112457362Y-63662619D01*
X112457362Y-63662619D02*
X112695457Y-63662619D01*
X112695457Y-63662619D02*
X112838314Y-63710238D01*
X112838314Y-63710238D02*
X112933552Y-63805476D01*
X112933552Y-63805476D02*
X112981171Y-63900714D01*
X112981171Y-63900714D02*
X113028790Y-64091190D01*
X113028790Y-64091190D02*
X113028790Y-64234047D01*
X113028790Y-64234047D02*
X112981171Y-64424523D01*
X112981171Y-64424523D02*
X112933552Y-64519761D01*
X112933552Y-64519761D02*
X112838314Y-64615000D01*
X112838314Y-64615000D02*
X112695457Y-64662619D01*
X112695457Y-64662619D02*
X112457362Y-64662619D01*
X113933552Y-63662619D02*
X113457362Y-63662619D01*
X113457362Y-63662619D02*
X113409743Y-64138809D01*
X113409743Y-64138809D02*
X113457362Y-64091190D01*
X113457362Y-64091190D02*
X113552600Y-64043571D01*
X113552600Y-64043571D02*
X113790695Y-64043571D01*
X113790695Y-64043571D02*
X113885933Y-64091190D01*
X113885933Y-64091190D02*
X113933552Y-64138809D01*
X113933552Y-64138809D02*
X113981171Y-64234047D01*
X113981171Y-64234047D02*
X113981171Y-64472142D01*
X113981171Y-64472142D02*
X113933552Y-64567380D01*
X113933552Y-64567380D02*
X113885933Y-64615000D01*
X113885933Y-64615000D02*
X113790695Y-64662619D01*
X113790695Y-64662619D02*
X113552600Y-64662619D01*
X113552600Y-64662619D02*
X113457362Y-64615000D01*
X113457362Y-64615000D02*
X113409743Y-64567380D01*
X114314505Y-63662619D02*
X114981171Y-63662619D01*
X114981171Y-63662619D02*
X114552600Y-64662619D01*
X115314505Y-63757857D02*
X115362124Y-63710238D01*
X115362124Y-63710238D02*
X115457362Y-63662619D01*
X115457362Y-63662619D02*
X115695457Y-63662619D01*
X115695457Y-63662619D02*
X115790695Y-63710238D01*
X115790695Y-63710238D02*
X115838314Y-63757857D01*
X115838314Y-63757857D02*
X115885933Y-63853095D01*
X115885933Y-63853095D02*
X115885933Y-63948333D01*
X115885933Y-63948333D02*
X115838314Y-64091190D01*
X115838314Y-64091190D02*
X115266886Y-64662619D01*
X115266886Y-64662619D02*
X115885933Y-64662619D01*
X116504981Y-63662619D02*
X116600219Y-63662619D01*
X116600219Y-63662619D02*
X116695457Y-63710238D01*
X116695457Y-63710238D02*
X116743076Y-63757857D01*
X116743076Y-63757857D02*
X116790695Y-63853095D01*
X116790695Y-63853095D02*
X116838314Y-64043571D01*
X116838314Y-64043571D02*
X116838314Y-64281666D01*
X116838314Y-64281666D02*
X116790695Y-64472142D01*
X116790695Y-64472142D02*
X116743076Y-64567380D01*
X116743076Y-64567380D02*
X116695457Y-64615000D01*
X116695457Y-64615000D02*
X116600219Y-64662619D01*
X116600219Y-64662619D02*
X116504981Y-64662619D01*
X116504981Y-64662619D02*
X116409743Y-64615000D01*
X116409743Y-64615000D02*
X116362124Y-64567380D01*
X116362124Y-64567380D02*
X116314505Y-64472142D01*
X116314505Y-64472142D02*
X116266886Y-64281666D01*
X116266886Y-64281666D02*
X116266886Y-64043571D01*
X116266886Y-64043571D02*
X116314505Y-63853095D01*
X116314505Y-63853095D02*
X116362124Y-63757857D01*
X116362124Y-63757857D02*
X116409743Y-63710238D01*
X116409743Y-63710238D02*
X116504981Y-63662619D01*
X117790695Y-64662619D02*
X117219267Y-64662619D01*
X117504981Y-64662619D02*
X117504981Y-63662619D01*
X117504981Y-63662619D02*
X117409743Y-63805476D01*
X117409743Y-63805476D02*
X117314505Y-63900714D01*
X117314505Y-63900714D02*
X117219267Y-63948333D01*
X118219267Y-64662619D02*
X118219267Y-63662619D01*
X118219267Y-63662619D02*
X118457362Y-63662619D01*
X118457362Y-63662619D02*
X118600219Y-63710238D01*
X118600219Y-63710238D02*
X118695457Y-63805476D01*
X118695457Y-63805476D02*
X118743076Y-63900714D01*
X118743076Y-63900714D02*
X118790695Y-64091190D01*
X118790695Y-64091190D02*
X118790695Y-64234047D01*
X118790695Y-64234047D02*
X118743076Y-64424523D01*
X118743076Y-64424523D02*
X118695457Y-64519761D01*
X118695457Y-64519761D02*
X118600219Y-64615000D01*
X118600219Y-64615000D02*
X118457362Y-64662619D01*
X118457362Y-64662619D02*
X118219267Y-64662619D01*
X119790695Y-64662619D02*
X119457362Y-64186428D01*
X119219267Y-64662619D02*
X119219267Y-63662619D01*
X119219267Y-63662619D02*
X119600219Y-63662619D01*
X119600219Y-63662619D02*
X119695457Y-63710238D01*
X119695457Y-63710238D02*
X119743076Y-63757857D01*
X119743076Y-63757857D02*
X119790695Y-63853095D01*
X119790695Y-63853095D02*
X119790695Y-63995952D01*
X119790695Y-63995952D02*
X119743076Y-64091190D01*
X119743076Y-64091190D02*
X119695457Y-64138809D01*
X119695457Y-64138809D02*
X119600219Y-64186428D01*
X119600219Y-64186428D02*
X119219267Y-64186428D01*
X120171648Y-63757857D02*
X120219267Y-63710238D01*
X120219267Y-63710238D02*
X120314505Y-63662619D01*
X120314505Y-63662619D02*
X120552600Y-63662619D01*
X120552600Y-63662619D02*
X120647838Y-63710238D01*
X120647838Y-63710238D02*
X120695457Y-63757857D01*
X120695457Y-63757857D02*
X120743076Y-63853095D01*
X120743076Y-63853095D02*
X120743076Y-63948333D01*
X120743076Y-63948333D02*
X120695457Y-64091190D01*
X120695457Y-64091190D02*
X120124029Y-64662619D01*
X120124029Y-64662619D02*
X120743076Y-64662619D01*
X121695457Y-63710238D02*
X121600219Y-63662619D01*
X121600219Y-63662619D02*
X121457362Y-63662619D01*
X121457362Y-63662619D02*
X121314505Y-63710238D01*
X121314505Y-63710238D02*
X121219267Y-63805476D01*
X121219267Y-63805476D02*
X121171648Y-63900714D01*
X121171648Y-63900714D02*
X121124029Y-64091190D01*
X121124029Y-64091190D02*
X121124029Y-64234047D01*
X121124029Y-64234047D02*
X121171648Y-64424523D01*
X121171648Y-64424523D02*
X121219267Y-64519761D01*
X121219267Y-64519761D02*
X121314505Y-64615000D01*
X121314505Y-64615000D02*
X121457362Y-64662619D01*
X121457362Y-64662619D02*
X121552600Y-64662619D01*
X121552600Y-64662619D02*
X121695457Y-64615000D01*
X121695457Y-64615000D02*
X121743076Y-64567380D01*
X121743076Y-64567380D02*
X121743076Y-64234047D01*
X121743076Y-64234047D02*
X121552600Y-64234047D01*
D12*
X118885716Y-77620519D02*
X118885716Y-76953852D01*
X118885716Y-77144328D02*
X118933335Y-77049090D01*
X118933335Y-77049090D02*
X118980954Y-77001471D01*
X118980954Y-77001471D02*
X119076192Y-76953852D01*
X119076192Y-76953852D02*
X119171430Y-76953852D01*
X119885716Y-77572900D02*
X119790478Y-77620519D01*
X119790478Y-77620519D02*
X119600002Y-77620519D01*
X119600002Y-77620519D02*
X119504764Y-77572900D01*
X119504764Y-77572900D02*
X119457145Y-77477661D01*
X119457145Y-77477661D02*
X119457145Y-77096709D01*
X119457145Y-77096709D02*
X119504764Y-77001471D01*
X119504764Y-77001471D02*
X119600002Y-76953852D01*
X119600002Y-76953852D02*
X119790478Y-76953852D01*
X119790478Y-76953852D02*
X119885716Y-77001471D01*
X119885716Y-77001471D02*
X119933335Y-77096709D01*
X119933335Y-77096709D02*
X119933335Y-77191947D01*
X119933335Y-77191947D02*
X119457145Y-77287185D01*
X120266669Y-76953852D02*
X120504764Y-77620519D01*
X120504764Y-77620519D02*
X120742859Y-76953852D01*
X121123812Y-77525280D02*
X121171431Y-77572900D01*
X121171431Y-77572900D02*
X121123812Y-77620519D01*
X121123812Y-77620519D02*
X121076193Y-77572900D01*
X121076193Y-77572900D02*
X121123812Y-77525280D01*
X121123812Y-77525280D02*
X121123812Y-77620519D01*
X121123812Y-77001471D02*
X121171431Y-77049090D01*
X121171431Y-77049090D02*
X121123812Y-77096709D01*
X121123812Y-77096709D02*
X121076193Y-77049090D01*
X121076193Y-77049090D02*
X121123812Y-77001471D01*
X121123812Y-77001471D02*
X121123812Y-77096709D01*
X122552383Y-76620519D02*
X122647621Y-76620519D01*
X122647621Y-76620519D02*
X122742859Y-76668138D01*
X122742859Y-76668138D02*
X122790478Y-76715757D01*
X122790478Y-76715757D02*
X122838097Y-76810995D01*
X122838097Y-76810995D02*
X122885716Y-77001471D01*
X122885716Y-77001471D02*
X122885716Y-77239566D01*
X122885716Y-77239566D02*
X122838097Y-77430042D01*
X122838097Y-77430042D02*
X122790478Y-77525280D01*
X122790478Y-77525280D02*
X122742859Y-77572900D01*
X122742859Y-77572900D02*
X122647621Y-77620519D01*
X122647621Y-77620519D02*
X122552383Y-77620519D01*
X122552383Y-77620519D02*
X122457145Y-77572900D01*
X122457145Y-77572900D02*
X122409526Y-77525280D01*
X122409526Y-77525280D02*
X122361907Y-77430042D01*
X122361907Y-77430042D02*
X122314288Y-77239566D01*
X122314288Y-77239566D02*
X122314288Y-77001471D01*
X122314288Y-77001471D02*
X122361907Y-76810995D01*
X122361907Y-76810995D02*
X122409526Y-76715757D01*
X122409526Y-76715757D02*
X122457145Y-76668138D01*
X122457145Y-76668138D02*
X122552383Y-76620519D01*
X123314288Y-77525280D02*
X123361907Y-77572900D01*
X123361907Y-77572900D02*
X123314288Y-77620519D01*
X123314288Y-77620519D02*
X123266669Y-77572900D01*
X123266669Y-77572900D02*
X123314288Y-77525280D01*
X123314288Y-77525280D02*
X123314288Y-77620519D01*
X124314287Y-77620519D02*
X123742859Y-77620519D01*
X124028573Y-77620519D02*
X124028573Y-76620519D01*
X124028573Y-76620519D02*
X123933335Y-76763376D01*
X123933335Y-76763376D02*
X123838097Y-76858614D01*
X123838097Y-76858614D02*
X123742859Y-76906233D01*
D10*
X109958865Y-69783095D02*
X109958865Y-68983095D01*
X109958865Y-69364047D02*
X110416008Y-69364047D01*
X110416008Y-69783095D02*
X110416008Y-68983095D01*
X110796960Y-69783095D02*
X110796960Y-68983095D01*
X111177912Y-69783095D02*
X111177912Y-68983095D01*
X111177912Y-68983095D02*
X111635055Y-69783095D01*
X111635055Y-69783095D02*
X111635055Y-68983095D01*
X109844579Y-66417695D02*
X110111246Y-67217695D01*
X110111246Y-67217695D02*
X110377912Y-66417695D01*
X110644579Y-67217695D02*
X110644579Y-66417695D01*
X110644579Y-66417695D02*
X110835055Y-66417695D01*
X110835055Y-66417695D02*
X110949341Y-66455790D01*
X110949341Y-66455790D02*
X111025531Y-66531980D01*
X111025531Y-66531980D02*
X111063626Y-66608171D01*
X111063626Y-66608171D02*
X111101722Y-66760552D01*
X111101722Y-66760552D02*
X111101722Y-66874838D01*
X111101722Y-66874838D02*
X111063626Y-67027219D01*
X111063626Y-67027219D02*
X111025531Y-67103409D01*
X111025531Y-67103409D02*
X110949341Y-67179600D01*
X110949341Y-67179600D02*
X110835055Y-67217695D01*
X110835055Y-67217695D02*
X110644579Y-67217695D01*
X111444579Y-67217695D02*
X111444579Y-66417695D01*
X111444579Y-66417695D02*
X111635055Y-66417695D01*
X111635055Y-66417695D02*
X111749341Y-66455790D01*
X111749341Y-66455790D02*
X111825531Y-66531980D01*
X111825531Y-66531980D02*
X111863626Y-66608171D01*
X111863626Y-66608171D02*
X111901722Y-66760552D01*
X111901722Y-66760552D02*
X111901722Y-66874838D01*
X111901722Y-66874838D02*
X111863626Y-67027219D01*
X111863626Y-67027219D02*
X111825531Y-67103409D01*
X111825531Y-67103409D02*
X111749341Y-67179600D01*
X111749341Y-67179600D02*
X111635055Y-67217695D01*
X111635055Y-67217695D02*
X111444579Y-67217695D01*
X120990782Y-71523095D02*
X121257449Y-72323095D01*
X121257449Y-72323095D02*
X121524115Y-71523095D01*
X121752686Y-72285000D02*
X121866972Y-72323095D01*
X121866972Y-72323095D02*
X122057448Y-72323095D01*
X122057448Y-72323095D02*
X122133639Y-72285000D01*
X122133639Y-72285000D02*
X122171734Y-72246904D01*
X122171734Y-72246904D02*
X122209829Y-72170714D01*
X122209829Y-72170714D02*
X122209829Y-72094523D01*
X122209829Y-72094523D02*
X122171734Y-72018333D01*
X122171734Y-72018333D02*
X122133639Y-71980238D01*
X122133639Y-71980238D02*
X122057448Y-71942142D01*
X122057448Y-71942142D02*
X121905067Y-71904047D01*
X121905067Y-71904047D02*
X121828877Y-71865952D01*
X121828877Y-71865952D02*
X121790782Y-71827857D01*
X121790782Y-71827857D02*
X121752686Y-71751666D01*
X121752686Y-71751666D02*
X121752686Y-71675476D01*
X121752686Y-71675476D02*
X121790782Y-71599285D01*
X121790782Y-71599285D02*
X121828877Y-71561190D01*
X121828877Y-71561190D02*
X121905067Y-71523095D01*
X121905067Y-71523095D02*
X122095544Y-71523095D01*
X122095544Y-71523095D02*
X122209829Y-71561190D01*
X110377912Y-74075790D02*
X110301722Y-74037695D01*
X110301722Y-74037695D02*
X110187436Y-74037695D01*
X110187436Y-74037695D02*
X110073150Y-74075790D01*
X110073150Y-74075790D02*
X109996960Y-74151980D01*
X109996960Y-74151980D02*
X109958865Y-74228171D01*
X109958865Y-74228171D02*
X109920769Y-74380552D01*
X109920769Y-74380552D02*
X109920769Y-74494838D01*
X109920769Y-74494838D02*
X109958865Y-74647219D01*
X109958865Y-74647219D02*
X109996960Y-74723409D01*
X109996960Y-74723409D02*
X110073150Y-74799600D01*
X110073150Y-74799600D02*
X110187436Y-74837695D01*
X110187436Y-74837695D02*
X110263627Y-74837695D01*
X110263627Y-74837695D02*
X110377912Y-74799600D01*
X110377912Y-74799600D02*
X110416008Y-74761504D01*
X110416008Y-74761504D02*
X110416008Y-74494838D01*
X110416008Y-74494838D02*
X110263627Y-74494838D01*
X110758865Y-74837695D02*
X110758865Y-74037695D01*
X110758865Y-74037695D02*
X111216008Y-74837695D01*
X111216008Y-74837695D02*
X111216008Y-74037695D01*
X111596960Y-74837695D02*
X111596960Y-74037695D01*
X111596960Y-74037695D02*
X111787436Y-74037695D01*
X111787436Y-74037695D02*
X111901722Y-74075790D01*
X111901722Y-74075790D02*
X111977912Y-74151980D01*
X111977912Y-74151980D02*
X112016007Y-74228171D01*
X112016007Y-74228171D02*
X112054103Y-74380552D01*
X112054103Y-74380552D02*
X112054103Y-74494838D01*
X112054103Y-74494838D02*
X112016007Y-74647219D01*
X112016007Y-74647219D02*
X111977912Y-74723409D01*
X111977912Y-74723409D02*
X111901722Y-74799600D01*
X111901722Y-74799600D02*
X111787436Y-74837695D01*
X111787436Y-74837695D02*
X111596960Y-74837695D01*
D13*
X114812837Y-71211718D02*
X114812837Y-69941718D01*
X116143314Y-71090765D02*
X116082838Y-71151242D01*
X116082838Y-71151242D02*
X115901409Y-71211718D01*
X115901409Y-71211718D02*
X115780457Y-71211718D01*
X115780457Y-71211718D02*
X115599028Y-71151242D01*
X115599028Y-71151242D02*
X115478076Y-71030289D01*
X115478076Y-71030289D02*
X115417599Y-70909337D01*
X115417599Y-70909337D02*
X115357123Y-70667432D01*
X115357123Y-70667432D02*
X115357123Y-70486003D01*
X115357123Y-70486003D02*
X115417599Y-70244099D01*
X115417599Y-70244099D02*
X115478076Y-70123146D01*
X115478076Y-70123146D02*
X115599028Y-70002194D01*
X115599028Y-70002194D02*
X115780457Y-69941718D01*
X115780457Y-69941718D02*
X115901409Y-69941718D01*
X115901409Y-69941718D02*
X116082838Y-70002194D01*
X116082838Y-70002194D02*
X116143314Y-70062670D01*
X117352838Y-71211718D02*
X116627123Y-71211718D01*
X116989980Y-71211718D02*
X116989980Y-69941718D01*
X116989980Y-69941718D02*
X116869028Y-70123146D01*
X116869028Y-70123146D02*
X116748076Y-70244099D01*
X116748076Y-70244099D02*
X116627123Y-70304575D01*
D11*
%TO.C,IC1*%
X112577600Y-68032400D02*
X114102600Y-68032400D01*
X114452600Y-68187400D02*
X117652600Y-68187400D01*
X114452600Y-73087400D02*
X114452600Y-68187400D01*
X117652600Y-68187400D02*
X117652600Y-73087400D01*
X117652600Y-73087400D02*
X114452600Y-73087400D01*
%TD*%
M02*
